<svg width="368" height="366" viewBox="0 0 368 366" fill="none" xmlns="http://www.w3.org/2000/svg">
<g filter="url(#filter0_f_135_1233)">
<path d="M81.8761 311.428C159.053 323.123 264.478 265.501 296.659 242.54C331.864 213.488 304.586 183.974 308.857 152.418C313.129 120.862 177.874 37.4972 92.8 56.809C7.72611 76.1208 129.996 137.955 117.636 198.033C105.275 258.111 4.69941 299.733 81.8761 311.428Z" fill="url(#paint0_radial_135_1233)"/>
</g>
<path d="M76.4623 146.599L59.3623 139.867V138.823L76.4623 132.415V135.259L65.2303 139.831L76.4623 145.555V146.599ZM96.6369 132.667C96.3729 131.347 95.9049 130.147 95.2329 129.067C94.5849 127.963 93.8169 127.087 92.9289 126.439C92.0409 125.791 91.0929 125.467 90.0849 125.467C88.9089 125.467 87.8769 125.863 86.9889 126.655C86.1009 127.447 85.4049 128.551 84.9009 129.967C84.4209 131.359 84.1809 133.003 84.1809 134.899C84.1809 137.083 84.4809 138.979 85.0809 140.587C85.7049 142.195 86.5689 143.431 87.6729 144.295C88.7769 145.159 90.0609 145.591 91.5249 145.591C92.9409 145.591 94.2609 145.207 95.4849 144.439C96.7329 143.647 97.7169 142.579 98.4369 141.235L98.8329 141.415C98.0649 144.031 96.9129 146.023 95.3769 147.391C93.8409 148.759 91.9809 149.443 89.7969 149.443C87.8289 149.443 86.0529 148.987 84.4689 148.075C82.8849 147.163 81.6369 145.843 80.7249 144.115C79.8129 142.363 79.3569 140.275 79.3569 137.851C79.3569 135.187 79.8969 132.847 80.9769 130.831C82.0809 128.791 83.5929 127.207 85.5129 126.079C87.4329 124.927 89.6289 124.351 92.1009 124.351H96.9969V132.667H96.6369ZM112.165 149.443C110.629 149.443 109.201 149.143 107.881 148.543C106.561 147.919 105.409 147.067 104.425 145.987C103.465 144.907 102.709 143.635 102.157 142.171C101.629 140.707 101.365 139.135 101.365 137.455C101.365 134.623 101.845 132.199 102.805 130.183C103.789 128.167 105.121 126.619 106.801 125.539C108.481 124.435 110.377 123.883 112.489 123.883C113.953 123.883 115.321 124.195 116.593 124.819C117.889 125.443 119.017 126.307 119.977 127.411C120.937 128.491 121.693 129.763 122.245 131.227C122.797 132.691 123.073 134.275 123.073 135.979C123.073 138.787 122.593 141.199 121.633 143.215C120.697 145.231 119.401 146.779 117.745 147.859C116.113 148.915 114.253 149.443 112.165 149.443ZM111.157 125.035C109.621 125.035 108.445 125.803 107.629 127.339C106.813 128.875 106.405 131.467 106.405 135.115C106.405 137.659 106.717 139.927 107.341 141.919C107.965 143.911 108.817 145.483 109.897 146.635C110.977 147.787 112.189 148.363 113.533 148.363C114.949 148.363 116.053 147.595 116.845 146.059C117.661 144.523 118.069 141.943 118.069 138.319C118.069 135.775 117.757 133.507 117.133 131.515C116.509 129.499 115.669 127.915 114.613 126.763C113.581 125.611 112.429 125.035 111.157 125.035ZM137.477 149.443C135.941 149.443 134.513 149.143 133.193 148.543C131.873 147.919 130.721 147.067 129.737 145.987C128.777 144.907 128.021 143.635 127.469 142.171C126.941 140.707 126.677 139.135 126.677 137.455C126.677 134.623 127.157 132.199 128.117 130.183C129.101 128.167 130.433 126.619 132.113 125.539C133.793 124.435 135.689 123.883 137.801 123.883C139.265 123.883 140.633 124.195 141.905 124.819C143.201 125.443 144.329 126.307 145.289 127.411C146.249 128.491 147.005 129.763 147.557 131.227C148.109 132.691 148.385 134.275 148.385 135.979C148.385 138.787 147.905 141.199 146.945 143.215C146.009 145.231 144.713 146.779 143.057 147.859C141.425 148.915 139.565 149.443 137.477 149.443ZM136.469 125.035C134.933 125.035 133.757 125.803 132.941 127.339C132.125 128.875 131.717 131.467 131.717 135.115C131.717 137.659 132.029 139.927 132.653 141.919C133.277 143.911 134.129 145.483 135.209 146.635C136.289 147.787 137.501 148.363 138.845 148.363C140.261 148.363 141.365 147.595 142.157 146.059C142.973 144.523 143.381 141.943 143.381 138.319C143.381 135.775 143.069 133.507 142.445 131.515C141.821 129.499 140.981 127.915 139.925 126.763C138.893 125.611 137.741 125.035 136.469 125.035ZM151.08 149.011L153.78 145.951V127.411L151.08 124.351H161.16L158.46 127.411V148.075H163.392L168.252 141.235H168.504L168.108 149.011H151.08ZM171.229 146.599V145.555L182.461 139.831L171.229 135.259V132.415L188.329 138.823V139.867L171.229 146.599Z" fill="#007991"/>
<path d="M124.768 251.143L107.668 244.411V243.367L124.768 236.959V239.803L113.536 244.375L124.768 250.099V251.143ZM138.642 228.535H139.902L128.67 253.555H127.41L138.642 228.535ZM157.669 237.211C157.405 235.891 156.937 234.691 156.265 233.611C155.617 232.507 154.849 231.631 153.961 230.983C153.073 230.335 152.125 230.011 151.117 230.011C149.941 230.011 148.909 230.407 148.021 231.199C147.133 231.991 146.437 233.095 145.933 234.511C145.453 235.903 145.213 237.547 145.213 239.443C145.213 241.627 145.513 243.523 146.113 245.131C146.737 246.739 147.601 247.975 148.705 248.839C149.809 249.703 151.093 250.135 152.557 250.135C153.973 250.135 155.293 249.751 156.517 248.983C157.765 248.191 158.749 247.123 159.469 245.779L159.865 245.959C159.097 248.575 157.945 250.567 156.409 251.935C154.873 253.303 153.013 253.987 150.829 253.987C148.861 253.987 147.085 253.531 145.501 252.619C143.917 251.707 142.669 250.387 141.757 248.659C140.845 246.907 140.389 244.819 140.389 242.395C140.389 239.731 140.929 237.391 142.009 235.375C143.113 233.335 144.625 231.751 146.545 230.623C148.465 229.471 150.661 228.895 153.133 228.895H158.029V237.211H157.669ZM173.197 253.987C171.661 253.987 170.233 253.687 168.913 253.087C167.593 252.463 166.441 251.611 165.457 250.531C164.497 249.451 163.741 248.179 163.189 246.715C162.661 245.251 162.397 243.679 162.397 241.999C162.397 239.167 162.877 236.743 163.837 234.727C164.821 232.711 166.153 231.163 167.833 230.083C169.513 228.979 171.409 228.427 173.521 228.427C174.985 228.427 176.353 228.739 177.625 229.363C178.921 229.987 180.049 230.851 181.009 231.955C181.969 233.035 182.725 234.307 183.277 235.771C183.829 237.235 184.105 238.819 184.105 240.523C184.105 243.331 183.625 245.743 182.665 247.759C181.729 249.775 180.433 251.323 178.777 252.403C177.145 253.459 175.285 253.987 173.197 253.987ZM172.189 229.579C170.653 229.579 169.477 230.347 168.661 231.883C167.845 233.419 167.437 236.011 167.437 239.659C167.437 242.203 167.749 244.471 168.373 246.463C168.997 248.455 169.849 250.027 170.929 251.179C172.009 252.331 173.221 252.907 174.565 252.907C175.981 252.907 177.085 252.139 177.877 250.603C178.693 249.067 179.101 246.487 179.101 242.863C179.101 240.319 178.789 238.051 178.165 236.059C177.541 234.043 176.701 232.459 175.645 231.307C174.613 230.155 173.461 229.579 172.189 229.579ZM198.509 253.987C196.973 253.987 195.545 253.687 194.225 253.087C192.905 252.463 191.753 251.611 190.769 250.531C189.809 249.451 189.053 248.179 188.501 246.715C187.973 245.251 187.709 243.679 187.709 241.999C187.709 239.167 188.189 236.743 189.149 234.727C190.133 232.711 191.465 231.163 193.145 230.083C194.825 228.979 196.721 228.427 198.833 228.427C200.297 228.427 201.665 228.739 202.937 229.363C204.233 229.987 205.361 230.851 206.321 231.955C207.281 233.035 208.037 234.307 208.589 235.771C209.141 237.235 209.417 238.819 209.417 240.523C209.417 243.331 208.937 245.743 207.977 247.759C207.041 249.775 205.745 251.323 204.089 252.403C202.457 253.459 200.597 253.987 198.509 253.987ZM197.501 229.579C195.965 229.579 194.789 230.347 193.973 231.883C193.157 233.419 192.749 236.011 192.749 239.659C192.749 242.203 193.061 244.471 193.685 246.463C194.309 248.455 195.161 250.027 196.241 251.179C197.321 252.331 198.533 252.907 199.877 252.907C201.293 252.907 202.397 252.139 203.189 250.603C204.005 249.067 204.413 246.487 204.413 242.863C204.413 240.319 204.101 238.051 203.477 236.059C202.853 234.043 202.013 232.459 200.957 231.307C199.925 230.155 198.773 229.579 197.501 229.579ZM212.112 253.555L214.812 250.495V231.955L212.112 228.895H222.192L219.492 231.955V252.619H224.424L229.284 245.779H229.536L229.14 253.555H212.112ZM232.261 251.143V250.099L243.493 244.375L232.261 239.803V236.959L249.361 243.367V244.411L232.261 251.143Z" fill="#007991"/>
<defs>
<filter id="filter0_f_135_1233" x="0" y="0.940399" width="367.933" height="365.037" filterUnits="userSpaceOnUse" color-interpolation-filters="sRGB">
<feFlood flood-opacity="0" result="BackgroundImageFix"/>
<feBlend mode="normal" in="SourceGraphic" in2="BackgroundImageFix" result="shape"/>
<feGaussianBlur stdDeviation="26.5" result="effect1_foregroundBlur_135_1233"/>
</filter>
<radialGradient id="paint0_radial_135_1233" cx="0" cy="0" r="1" gradientUnits="userSpaceOnUse" gradientTransform="translate(200.844 87.4602) rotate(92.6948) scale(384.437 630.272)">
<stop stop-color="#78FFD6"/>
<stop offset="1" stop-color="#007991"/>
</radialGradient>
</defs>
</svg>
