<svg width="360" height="366" viewBox="0 0 360 366" fill="none" xmlns="http://www.w3.org/2000/svg">
<g filter="url(#filter0_f_236_194)">
<path d="M81.5165 311.428C156.027 323.123 257.811 265.5 288.879 242.54C322.869 213.488 296.533 183.974 300.657 152.418C304.781 120.862 174.198 37.4972 92.063 56.809C9.92797 76.1208 127.974 137.955 116.041 198.033C104.107 258.111 7.00581 299.733 81.5165 311.428Z" fill="url(#paint0_radial_236_194)"/>
</g>
<path d="M128.364 126.163L111.264 119.431V118.387L128.364 111.979V114.823L117.132 119.395L128.364 125.119V126.163ZM141.375 129.007L132.699 107.011L130.467 103.915H140.295L137.775 107.011L143.427 122.023L146.847 113.527L144.471 107.011L142.311 103.915H152.499L149.439 106.903L154.767 121.519L159.447 106.831L156.351 103.843H163.875L160.671 106.867L153.435 129.007H153.003L147.495 115.003L141.807 129.007H141.375ZM175.372 128.575H165.364L168.028 124.759V107.731L165.364 103.915H175.372L172.708 107.731V124.759L175.372 128.575ZM178.519 117.991C179.167 119.863 179.827 121.543 180.499 123.031C181.195 124.519 181.951 125.695 182.767 126.559C183.607 127.423 184.579 127.855 185.683 127.855C186.787 127.855 187.651 127.519 188.275 126.847C188.923 126.175 189.247 125.251 189.247 124.075C189.247 122.923 188.971 121.975 188.419 121.231C187.891 120.487 187.207 119.851 186.367 119.323C185.527 118.795 184.627 118.279 183.667 117.775C182.707 117.271 181.807 116.707 180.967 116.083C180.127 115.459 179.431 114.691 178.879 113.779C178.351 112.843 178.087 111.667 178.087 110.251C178.087 108.883 178.399 107.731 179.023 106.795C179.671 105.835 180.547 105.115 181.651 104.635C182.755 104.155 183.991 103.915 185.359 103.915H189.787L191.515 103.375V112.051H191.155C190.747 110.611 190.183 109.363 189.463 108.307C188.743 107.227 187.939 106.399 187.051 105.823C186.187 105.223 185.311 104.923 184.423 104.923C183.607 104.923 182.959 105.199 182.479 105.751C182.023 106.279 181.795 107.035 181.795 108.019C181.795 109.171 182.071 110.131 182.623 110.899C183.175 111.667 183.883 112.339 184.747 112.915C185.611 113.467 186.523 114.007 187.483 114.535C188.467 115.063 189.391 115.639 190.255 116.263C191.119 116.887 191.827 117.655 192.379 118.567C192.931 119.479 193.207 120.607 193.207 121.951C193.207 123.343 192.859 124.555 192.163 125.587C191.491 126.619 190.543 127.423 189.319 127.999C188.119 128.575 186.739 128.863 185.179 128.863C184.075 128.863 182.923 128.743 181.723 128.503C180.523 128.263 179.479 127.951 178.591 127.567L178.159 117.991H178.519ZM209.807 128.575L212.507 125.515V116.479H203.111V125.515L205.811 128.575H195.731L198.431 125.515V106.975L195.731 103.915H205.811L203.111 106.975V115.471H212.507V106.975L209.807 103.915H219.887L217.187 107.011V125.515L219.887 128.575H209.807ZM222.99 126.163V125.119L234.222 119.395L222.99 114.823V111.979L240.09 118.387V119.431L222.99 126.163Z" fill="#007991"/>
<path d="M41.756 231.98L24.656 225.248V224.204L41.756 217.796V220.64L30.524 225.212L41.756 230.936V231.98ZM55.6306 209.372H56.8906L45.6586 234.392H44.3986L55.6306 209.372ZM69.2862 234.824L60.6102 212.828L58.3782 209.732H68.2062L65.6862 212.828L71.3382 227.84L74.7582 219.344L72.3822 212.828L70.2222 209.732H80.4102L77.3502 212.72L82.6782 227.336L87.3582 212.648L84.2622 209.66H91.7862L88.5822 212.684L81.3462 234.824H80.9142L75.4062 220.82L69.7182 234.824H69.2862ZM103.284 234.392H93.2759L95.9399 230.576V213.548L93.2759 209.732H103.284L100.62 213.548V230.576L103.284 234.392ZM106.43 223.808C107.078 225.68 107.738 227.36 108.41 228.848C109.106 230.336 109.862 231.512 110.678 232.376C111.518 233.24 112.49 233.672 113.594 233.672C114.698 233.672 115.562 233.336 116.186 232.664C116.834 231.992 117.158 231.068 117.158 229.892C117.158 228.74 116.882 227.792 116.33 227.048C115.802 226.304 115.118 225.668 114.278 225.14C113.438 224.612 112.538 224.096 111.578 223.592C110.618 223.088 109.718 222.524 108.878 221.9C108.038 221.276 107.342 220.508 106.79 219.596C106.262 218.66 105.998 217.484 105.998 216.068C105.998 214.7 106.31 213.548 106.934 212.612C107.582 211.652 108.458 210.932 109.562 210.452C110.666 209.972 111.902 209.732 113.27 209.732H117.698L119.426 209.192V217.868H119.066C118.658 216.428 118.094 215.18 117.374 214.124C116.654 213.044 115.85 212.216 114.962 211.64C114.098 211.04 113.222 210.74 112.334 210.74C111.518 210.74 110.87 211.016 110.39 211.568C109.934 212.096 109.706 212.852 109.706 213.836C109.706 214.988 109.982 215.948 110.534 216.716C111.086 217.484 111.794 218.156 112.658 218.732C113.522 219.284 114.434 219.824 115.394 220.352C116.378 220.88 117.302 221.456 118.166 222.08C119.03 222.704 119.738 223.472 120.29 224.384C120.842 225.296 121.118 226.424 121.118 227.768C121.118 229.16 120.77 230.372 120.074 231.404C119.402 232.436 118.454 233.24 117.23 233.816C116.03 234.392 114.65 234.68 113.09 234.68C111.986 234.68 110.834 234.56 109.634 234.32C108.434 234.08 107.39 233.768 106.502 233.384L106.07 223.808H106.43ZM137.719 234.392L140.419 231.332V222.296H131.023V231.332L133.723 234.392H123.643L126.343 231.332V212.792L123.643 209.732H133.723L131.023 212.792V221.288H140.419V212.792L137.719 209.732H147.799L145.099 212.828V231.332L147.799 234.392H137.719ZM150.902 231.98V230.936L162.134 225.212L150.902 220.64V217.796L168.002 224.204V225.248L150.902 231.98Z" fill="#007991"/>
<defs>
<filter id="filter0_f_236_194" x="0.637939" y="0.940399" width="358.885" height="365.037" filterUnits="userSpaceOnUse" color-interpolation-filters="sRGB">
<feFlood flood-opacity="0" result="BackgroundImageFix"/>
<feBlend mode="normal" in="SourceGraphic" in2="BackgroundImageFix" result="shape"/>
<feGaussianBlur stdDeviation="26.5" result="effect1_foregroundBlur_236_194"/>
</filter>
<radialGradient id="paint0_radial_236_194" cx="0" cy="0" r="1" gradientUnits="userSpaceOnUse" gradientTransform="translate(196.374 87.4602) rotate(92.6018) scale(384.408 608.545)">
<stop stop-color="#78FFD6"/>
<stop offset="1" stop-color="#007991"/>
</radialGradient>
</defs>
</svg>
