<svg width="368" height="366" viewBox="0 0 368 366" fill="none" xmlns="http://www.w3.org/2000/svg">
<g filter="url(#filter0_f_236_207)">
<path d="M81.8761 311.428C159.053 323.123 264.478 265.501 296.659 242.54C331.864 213.488 304.586 183.974 308.857 152.418C313.129 120.862 177.874 37.4972 92.8 56.809C7.72611 76.1208 129.996 137.955 117.636 198.033C105.275 258.111 4.69941 299.733 81.8761 311.428Z" fill="url(#paint0_radial_236_207)"/>
</g>
<path d="M91.9992 125.888L74.8992 119.156V118.112L91.9992 111.704V114.548L80.7672 119.12L91.9992 124.844V125.888ZM95.3258 117.716C95.9738 119.588 96.6338 121.268 97.3058 122.756C98.0018 124.244 98.7578 125.42 99.5738 126.284C100.414 127.148 101.386 127.58 102.49 127.58C103.594 127.58 104.458 127.244 105.082 126.572C105.73 125.9 106.054 124.976 106.054 123.8C106.054 122.648 105.778 121.7 105.226 120.956C104.698 120.212 104.014 119.576 103.174 119.048C102.334 118.52 101.434 118.004 100.474 117.5C99.5138 116.996 98.6138 116.432 97.7738 115.808C96.9338 115.184 96.2378 114.416 95.6858 113.504C95.1578 112.568 94.8938 111.392 94.8938 109.976C94.8938 108.608 95.2058 107.456 95.8298 106.52C96.4778 105.56 97.3538 104.84 98.4578 104.36C99.5618 103.88 100.798 103.64 102.166 103.64H106.594L108.322 103.1V111.776H107.962C107.554 110.336 106.99 109.088 106.27 108.032C105.55 106.952 104.746 106.124 103.858 105.548C102.994 104.948 102.118 104.648 101.23 104.648C100.414 104.648 99.7658 104.924 99.2858 105.476C98.8298 106.004 98.6018 106.76 98.6018 107.744C98.6018 108.896 98.8778 109.856 99.4298 110.624C99.9818 111.392 100.69 112.064 101.554 112.64C102.418 113.192 103.33 113.732 104.29 114.26C105.274 114.788 106.198 115.364 107.062 115.988C107.926 116.612 108.634 117.38 109.186 118.292C109.738 119.204 110.014 120.332 110.014 121.676C110.014 123.068 109.666 124.28 108.97 125.312C108.298 126.344 107.35 127.148 106.126 127.724C104.926 128.3 103.546 128.588 101.986 128.588C100.882 128.588 99.7298 128.468 98.5298 128.228C97.3298 127.988 96.2858 127.676 95.3978 127.292L94.9658 117.716H95.3258ZM132.05 125.384L135.794 128.3H125.354L126.614 125.744L122.402 116.348L120.278 119.084V125.24L122.978 128.3H112.898L115.598 125.24V106.664L112.898 103.604H122.978L120.278 106.664V117.392L129.026 106.232L126.758 103.604H134.03L129.854 106.844L126.038 111.992L132.05 125.384ZM147.691 128.3H137.683L140.347 124.484V107.456L137.683 103.64H147.691L145.027 107.456V124.484L147.691 128.3ZM150.586 128.3L153.286 125.24V106.7L150.586 103.64H160.666L157.966 106.7V127.364H162.898L167.758 120.524H168.01L167.614 128.3H150.586ZM170.519 128.3L173.219 125.24V106.7L170.519 103.64H180.599L177.899 106.7V127.364H182.831L187.691 120.524H187.943L187.547 128.3H170.519ZM190.669 125.888V124.844L201.901 119.12L190.669 114.548V111.704L207.769 118.112V119.156L190.669 125.888Z" fill="#007991"/>
<path d="M168.459 292.566L151.359 285.834V284.79L168.459 278.382V281.226L157.227 285.798L168.459 291.522V292.566ZM182.333 269.958H183.593L172.361 294.978H171.101L182.333 269.958ZM186.305 284.394C186.953 286.266 187.613 287.946 188.285 289.434C188.981 290.922 189.737 292.098 190.553 292.962C191.393 293.826 192.365 294.258 193.469 294.258C194.573 294.258 195.437 293.922 196.061 293.25C196.709 292.578 197.033 291.654 197.033 290.478C197.033 289.326 196.757 288.378 196.205 287.634C195.677 286.89 194.993 286.254 194.153 285.726C193.313 285.198 192.413 284.682 191.453 284.178C190.493 283.674 189.593 283.11 188.753 282.486C187.913 281.862 187.217 281.094 186.665 280.182C186.137 279.246 185.873 278.07 185.873 276.654C185.873 275.286 186.185 274.134 186.809 273.198C187.457 272.238 188.333 271.518 189.437 271.038C190.541 270.558 191.777 270.318 193.145 270.318H197.573L199.301 269.778V278.454H198.941C198.533 277.014 197.969 275.766 197.249 274.71C196.529 273.63 195.725 272.802 194.837 272.226C193.973 271.626 193.097 271.326 192.209 271.326C191.393 271.326 190.745 271.602 190.265 272.154C189.809 272.682 189.581 273.438 189.581 274.422C189.581 275.574 189.857 276.534 190.409 277.302C190.961 278.07 191.669 278.742 192.533 279.318C193.397 279.87 194.309 280.41 195.269 280.938C196.253 281.466 197.177 282.042 198.041 282.666C198.905 283.29 199.613 284.058 200.165 284.97C200.717 285.882 200.993 287.01 200.993 288.354C200.993 289.746 200.645 290.958 199.949 291.99C199.277 293.022 198.329 293.826 197.105 294.402C195.905 294.978 194.525 295.266 192.965 295.266C191.861 295.266 190.709 295.146 189.509 294.906C188.309 294.666 187.265 294.354 186.377 293.97L185.945 284.394H186.305ZM223.029 292.062L226.773 294.978H216.333L217.593 292.422L213.381 283.026L211.257 285.762V291.918L213.957 294.978H203.877L206.577 291.918V273.342L203.877 270.282H213.957L211.257 273.342V284.07L220.005 272.91L217.737 270.282H225.009L220.833 273.522L217.017 278.67L223.029 292.062ZM238.67 294.978H228.662L231.326 291.162V274.134L228.662 270.318H238.67L236.006 274.134V291.162L238.67 294.978ZM241.565 294.978L244.265 291.918V273.378L241.565 270.318H251.645L248.945 273.378V294.042H253.877L258.737 287.202H258.989L258.593 294.978H241.565ZM261.498 294.978L264.198 291.918V273.378L261.498 270.318H271.578L268.878 273.378V294.042H273.81L278.67 287.202H278.922L278.526 294.978H261.498ZM281.648 292.566V291.522L292.88 285.798L281.648 281.226V278.382L298.748 284.79V285.834L281.648 292.566Z" fill="#007991"/>
<defs>
<filter id="filter0_f_236_207" x="0" y="0.940399" width="367.933" height="365.037" filterUnits="userSpaceOnUse" color-interpolation-filters="sRGB">
<feFlood flood-opacity="0" result="BackgroundImageFix"/>
<feBlend mode="normal" in="SourceGraphic" in2="BackgroundImageFix" result="shape"/>
<feGaussianBlur stdDeviation="26.5" result="effect1_foregroundBlur_236_207"/>
</filter>
<radialGradient id="paint0_radial_236_207" cx="0" cy="0" r="1" gradientUnits="userSpaceOnUse" gradientTransform="translate(200.844 87.4602) rotate(92.6948) scale(384.437 630.272)">
<stop stop-color="#78FFD6"/>
<stop offset="1" stop-color="#007991"/>
</radialGradient>
</defs>
</svg>
