<svg width="364" height="32" viewBox="0 0 364 32" fill="none" xmlns="http://www.w3.org/2000/svg">
<path d="M0.824 29.76C0.76 29.6107 0.728 28.9173 0.728 27.68C0.728 26.4427 0.76 25.7387 0.824 25.568C3.04267 25.8027 5.88 25.92 9.336 25.92H17.848C18.0613 24.704 18.2853 23.3067 18.52 21.728H9.208L8.824 23.232L4.728 22.944C6.24267 17.5893 7.46933 11.9893 8.408 6.144H5.08C4.09867 6.144 3 6.19733 1.784 6.304C1.72 6.21867 1.688 5.568 1.688 4.352C1.688 3.11467 1.72 2.4 1.784 2.208C4.19467 2.464 7.39467 2.592 11.384 2.592H19.928C22.6587 2.592 25.496 2.47467 28.44 2.24C28.504 2.41066 28.536 3.11467 28.536 4.352C28.536 5.58933 28.504 6.29333 28.44 6.464C26.2427 6.25067 23.5867 6.144 20.472 6.144H12.504C12.3547 6.93333 12.1093 8.13867 11.768 9.76H23.896C23.2987 15.8827 22.648 21.2693 21.944 25.92H25.624C26.7333 25.92 27.96 25.8667 29.304 25.76C29.368 25.8453 29.4 26.496 29.4 27.712C29.4 28.928 29.368 29.6107 29.304 29.76C27.5547 29.568 25.1867 29.472 22.2 29.472H15.064H7.928C5.56 29.472 3.192 29.568 0.824 29.76ZM9.976 18.304H14.456H18.968C19.096 17.2587 19.2773 15.712 19.512 13.664C19.5333 13.4293 19.5547 13.2587 19.576 13.152H11.096C10.7547 14.9013 10.3813 16.6187 9.976 18.304ZM70.936 31.008C70.36 30.0693 69.624 29.2267 68.728 28.48C62.712 29.12 58.5733 29.536 56.312 29.728L55.864 26.528C58.4453 26.336 60.568 26.1867 62.232 26.08V24.16H59.48C58.84 24.16 57.9227 24.2027 56.728 24.288C56.664 24.224 56.632 23.7333 56.632 22.816C56.632 21.8987 56.664 21.408 56.728 21.344C57.624 21.4293 58.5413 21.472 59.48 21.472H62.232V20.224H56.856V15.296V10.336H62.232V9.088H59.128C58.4453 9.088 57.4213 9.13067 56.056 9.216C55.992 9.152 55.96 8.65067 55.96 7.712C55.96 6.77333 55.992 6.272 56.056 6.208C57.08 6.29333 58.104 6.336 59.128 6.336H62.232V5.056C60.2053 5.20533 58.4453 5.29067 56.952 5.312C56.7813 4.352 56.504 3.456 56.12 2.624C61.8587 2.304 66.3707 1.78133 69.656 1.056L71.288 3.904C69.688 4.24533 67.8 4.53333 65.624 4.768V6.336H71.64V8.096H74.584C74.6053 6.688 74.616 4.45867 74.616 1.408H78.2C78.2 4.45867 78.1787 6.688 78.136 8.096H84.504C84.504 8.65067 84.4933 9.216 84.472 9.792C84.3227 16.6187 84.152 21.2693 83.96 23.744C83.7467 26.5387 83.4053 28.288 82.936 28.992C82.616 29.4827 82.2427 29.856 81.816 30.112C81.4747 30.304 81.0267 30.464 80.472 30.592C79.832 30.72 78.5307 30.7627 76.568 30.72C76.4827 29.4187 76.12 28.2027 75.48 27.072C76.632 27.1787 77.688 27.232 78.648 27.232C79.096 27.232 79.448 27.0507 79.704 26.688C80.0453 26.2613 80.3013 24.928 80.472 22.688C80.6427 20.4053 80.7707 16.704 80.856 11.584H78.04C77.8053 16.2987 77.2293 20.0747 76.312 22.912C75.1813 26.3253 73.3893 29.024 70.936 31.008ZM65.624 25.792C66.9253 25.7067 68.7493 25.5573 71.096 25.344C72.248 23.7013 73.0907 21.696 73.624 19.328C74.0933 17.2587 74.3813 14.6773 74.488 11.584H71.64V9.088H65.624V10.336H71.192V15.296V20.224H65.624V21.472H68.472C69.1333 21.472 70.0827 21.4293 71.32 21.344C71.384 21.408 71.416 21.8987 71.416 22.816C71.416 23.7333 71.384 24.224 71.32 24.288C70.3813 24.2027 69.432 24.16 68.472 24.16H65.624V25.792ZM59.8 17.856H62.232V16.416H61.016H59.8V17.856ZM65.624 17.856H66.84H68.088V16.416H65.624V17.856ZM59.8 14.144H62.232V12.736H61.016H59.8V14.144ZM65.624 14.144H68.088V12.736H66.84H65.624V14.144ZM136.12 30.784C133.603 30.784 131.619 28.736 130.168 24.64C128.909 21.1413 128.067 16.2773 127.64 10.048H119.832H115.928C114.776 10.048 113.485 10.1013 112.056 10.208C111.992 10.1227 111.96 9.44 111.96 8.16C111.96 6.88 111.992 6.16533 112.056 6.016C114.189 6.22933 116.749 6.336 119.736 6.336H127.448C127.384 4.608 127.352 2.848 127.352 1.056H131.384C131.341 3.04 131.352 4.8 131.416 6.336H136.344C135.661 5.44 134.445 4.32 132.696 2.976L135.16 0.895998C137.08 2.26133 138.456 3.44533 139.288 4.448L137.144 6.336H138.616C138.957 6.336 139.448 6.31467 140.088 6.272C140.152 6.29333 140.184 6.93333 140.184 8.192C140.184 9.45067 140.152 10.1333 140.088 10.24C139.043 10.112 137.624 10.048 135.832 10.048H131.576C131.917 14.848 132.525 18.8053 133.4 21.92C134.317 25.1627 135.331 26.784 136.44 26.784C137.101 26.784 137.507 24.864 137.656 21.024C138.637 22.0907 139.725 22.8373 140.92 23.264C140.643 26.208 140.141 28.2133 139.416 29.28C138.755 30.2827 137.656 30.784 136.12 30.784ZM113.08 29.888L112.056 26.048C112.312 26.0053 112.717 25.9413 113.272 25.856C115.277 25.536 116.845 25.28 117.976 25.088V17.376H115.608C114.797 17.376 114.008 17.408 113.24 17.472C113.176 17.4293 113.144 16.7893 113.144 15.552C113.144 14.2933 113.176 13.6213 113.24 13.536C114.157 13.6427 115.277 13.696 116.6 13.696H119.96H123.352C124.355 13.696 125.475 13.6427 126.712 13.536C126.776 13.6213 126.808 14.2933 126.808 15.552C126.808 16.7893 126.776 17.44 126.712 17.504C125.901 17.4187 125.069 17.376 124.216 17.376H121.688V24.416C123.48 24.096 125.421 23.7227 127.512 23.296L127.8 26.688C123.533 27.648 118.627 28.7147 113.08 29.888ZM180.312 31.008C179.16 31.008 178.552 30.9547 178.488 30.848C178.573 29.952 178.616 29.024 178.616 28.064V25.28L176.312 26.048C176.12 24.2133 175.64 22.2933 174.872 20.288L177.496 19.488C177.859 20.3413 178.232 21.4507 178.616 22.816V18.368L176.632 19.296C176.589 18.9973 176.472 18.5067 176.28 17.824C176.216 17.632 176.173 17.4933 176.152 17.408L174.584 17.536V24.16C174.584 26.9547 174.68 29.1627 174.872 30.784C174.723 30.8907 174.093 30.944 172.984 30.944C171.875 30.944 171.245 30.8907 171.096 30.784C171.288 29.184 171.384 27.0187 171.384 24.288V17.792L167.032 18.144L166.68 14.848L168.92 14.72C169.197 14.3787 169.613 13.824 170.168 13.056C170.232 12.9493 170.285 12.8747 170.328 12.832C169.496 11.4453 168.301 9.952 166.744 8.352L168.568 5.792C168.717 5.94133 168.963 6.16533 169.304 6.464C170.328 4.39467 171.075 2.54933 171.544 0.927999C172.397 1.22667 173.176 1.62133 173.88 2.112C174.627 2.64533 174.936 3.04 174.808 3.296C174.701 3.488 174.541 3.648 174.328 3.776C173.944 3.968 173.613 4.34133 173.336 4.896C172.653 6.28267 171.96 7.52 171.256 8.608C171.576 8.992 171.907 9.408 172.248 9.856C173.507 7.78667 174.445 6.05867 175.064 4.672C175.875 5.056 176.6 5.52533 177.24 6.08C177.923 6.656 178.189 7.06133 178.04 7.296C177.933 7.46667 177.763 7.59466 177.528 7.68C177.144 7.82933 176.792 8.14933 176.472 8.64C175.021 10.816 173.624 12.7787 172.28 14.528L175 14.368C174.573 13.4293 174.243 12.7467 174.008 12.32L176.632 11.2C177.379 12.48 178.04 13.8773 178.616 15.392V8.832C178.616 6.08 178.52 3.89333 178.328 2.272C178.328 2.03733 178.424 1.92 178.616 1.92C180.792 2.15467 183.597 2.272 187.032 2.272H191.256C193.027 2.272 194.424 2.208 195.448 2.08C195.704 2.08 195.832 2.144 195.832 2.272C195.576 4.66133 195.448 7.86133 195.448 11.872V27.008C195.448 27.904 195.341 28.5867 195.128 29.056C194.936 29.5253 194.584 29.8987 194.072 30.176C193.219 30.624 191.64 30.8267 189.336 30.784C189.229 29.76 188.909 28.6933 188.376 27.584C189.208 27.6267 190.243 27.648 191.48 27.648C191.864 27.6267 192.056 27.4133 192.056 27.008V5.568H181.944V18.208V24.544C181.944 27.0827 182.029 29.184 182.2 30.848C182.072 30.9547 181.443 31.008 180.312 31.008ZM169.112 28.384C168.515 27.9573 167.608 27.5093 166.392 27.04C167.139 25.4613 167.672 22.9867 167.992 19.616C168.803 19.7653 169.56 19.968 170.264 20.224C171.011 20.5013 171.373 20.7467 171.352 20.96C171.331 21.1307 171.256 21.28 171.128 21.408C170.893 21.6213 170.744 21.952 170.68 22.4C170.616 22.912 170.477 23.6587 170.264 24.64C169.923 26.176 169.539 27.424 169.112 28.384ZM187.224 26.048C185.795 26.048 184.835 25.7493 184.344 25.152C183.896 24.5973 183.672 23.5413 183.672 21.984V19.2H183.16C183.096 19.2 183 19.2107 182.872 19.232C182.765 19.232 182.691 19.232 182.648 19.232C182.584 19.2107 182.552 18.72 182.552 17.76C182.552 16.7787 182.584 16.2773 182.648 16.256C183.075 16.2987 183.533 16.32 184.024 16.32H185.4V13.824H184.056C183.736 13.824 183.299 13.8453 182.744 13.888C182.68 13.8453 182.648 13.344 182.648 12.384C182.648 11.424 182.68 10.9333 182.744 10.912C182.787 10.912 182.861 10.912 182.968 10.912C183.139 10.9333 183.256 10.944 183.32 10.944H183.896C183.704 9.62133 183.352 8.352 182.84 7.136L185.048 6.336C185.731 7.72267 186.147 9.07733 186.296 10.4L184.792 10.944H188.664L187.416 10.496C188.013 9.04533 188.419 7.60533 188.632 6.176C189.379 6.38933 190.072 6.67733 190.712 7.04C191.395 7.424 191.693 7.712 191.608 7.904C191.544 8.05333 191.427 8.17067 191.256 8.256C190.957 8.384 190.712 8.65067 190.52 9.056C190.499 9.12 190.467 9.216 190.424 9.344C190.104 10.0907 189.869 10.624 189.72 10.944H190.488C190.595 10.944 190.733 10.9333 190.904 10.912C191.053 10.912 191.16 10.912 191.224 10.912C191.288 10.9333 191.32 11.424 191.32 12.384C191.32 13.344 191.288 13.8453 191.224 13.888C190.797 13.8453 190.349 13.824 189.88 13.824H188.536V16.32H189.944C190.264 16.32 190.723 16.2987 191.32 16.256C191.384 16.2773 191.416 16.7787 191.416 17.76C191.416 18.72 191.384 19.2213 191.32 19.264C190.979 19.2213 190.605 19.2 190.2 19.2H189.048H186.776V22.016C186.776 22.4213 186.797 22.6987 186.84 22.848C186.904 22.9973 187.032 23.072 187.224 23.072H189.336C189.955 23.072 190.488 23.008 190.936 22.88C190.957 23.008 190.979 23.2533 191 23.616C191.085 24.7253 191.149 25.4613 191.192 25.824C190.829 25.9733 190.211 26.048 189.336 26.048H187.224ZM247.704 30.784C245.229 29.312 242.2 27.9253 238.616 26.624L241.208 24.32H232.856L235.576 26.528C234.253 27.296 232.6 28.0853 230.616 28.896C228.781 29.6213 227.011 30.24 225.304 30.752C224.515 29.728 223.651 28.7467 222.712 27.808C224.205 27.424 225.795 26.912 227.48 26.272C229.165 25.6107 230.573 24.96 231.704 24.32H226.584V16.032C226.584 12.6613 226.467 9.89867 226.232 7.744C226.232 7.63733 226.349 7.584 226.584 7.584C227.693 7.69067 229.016 7.744 230.552 7.744H234.552C234.637 7.38133 234.733 6.80533 234.84 6.016C234.861 5.93067 234.872 5.86667 234.872 5.824H229.368C227.832 5.824 225.997 5.89867 223.864 6.048C223.8 5.94133 223.768 5.29067 223.768 4.096C223.768 2.90133 223.8 2.22933 223.864 2.08C225.507 2.272 227.693 2.368 230.424 2.368H236.984H243.544C245.741 2.368 247.928 2.272 250.104 2.08C250.168 2.22933 250.2 2.90133 250.2 4.096C250.2 5.29067 250.168 5.94133 250.104 6.048C248.547 5.89867 246.733 5.824 244.664 5.824H239.224C239.075 6.35733 238.861 6.99733 238.584 7.744H243.256C245.197 7.744 246.744 7.68 247.896 7.552C248.131 7.552 248.248 7.616 248.248 7.744C248.013 9.89867 247.896 12.6613 247.896 16.032V24.32H241.88C245.528 25.6213 248.707 26.9333 251.416 28.256L247.704 30.784ZM230.456 21.408H243.8V19.648H237.112H230.456V21.408ZM230.456 16.896H243.8V15.136H237.112H230.456V16.896ZM230.456 12.416H243.8V10.656H237.112H230.456V12.416ZM291 30.752C290.488 29.536 289.837 28.4373 289.048 27.456V29.088H282.488V29.728C282.488 29.8133 282.499 29.9413 282.52 30.112C282.52 30.2187 282.52 30.2933 282.52 30.336C282.499 30.4427 281.955 30.496 280.888 30.496C279.8 30.496 279.203 30.4427 279.096 30.336C279.245 28.7573 279.32 26.944 279.32 24.896V19.424H284.184C286.019 19.424 287.64 19.3493 289.048 19.2C289.155 19.2 289.208 19.2747 289.208 19.424C289.101 20.5333 289.048 21.856 289.048 23.392V27.392C291.459 26.7733 293.571 25.856 295.384 24.64C293.976 23.0827 292.781 21.2373 291.8 19.104L294.968 18.048H292.792C292.045 18.048 291.32 18.08 290.616 18.144C290.552 18.1013 290.52 17.504 290.52 16.352C290.52 15.2 290.552 14.6133 290.616 14.592C290.659 14.592 290.723 14.592 290.808 14.592C290.957 14.6133 291.075 14.624 291.16 14.624H291.704C290.979 13.7707 290.104 13.0027 289.08 12.32V13.536H284.248C282.904 13.536 281.293 13.6107 279.416 13.76C279.352 13.6533 279.32 13.0987 279.32 12.096C279.32 11.072 279.352 10.5067 279.416 10.4C280.803 10.5493 282.413 10.624 284.248 10.624H289.08V12.16C290.296 11.3067 291.139 10.24 291.608 8.96C291.949 8.064 292.12 6.944 292.12 5.6V1.792H297.4C299.363 1.792 301.112 1.71733 302.648 1.568C302.755 1.568 302.808 1.64267 302.808 1.792C302.701 2.79467 302.648 3.98933 302.648 5.376V8.96C302.648 9.408 302.669 9.68533 302.712 9.792C302.755 9.89867 302.861 9.952 303.032 9.952H303.832C304.045 9.952 304.184 9.77067 304.248 9.408C304.333 8.98133 304.376 8.096 304.376 6.752C305.037 7.264 306.061 7.712 307.448 8.096C307.299 10.0587 306.979 11.4027 306.488 12.128C306.04 12.832 305.283 13.184 304.216 13.184H302.392C301.133 13.184 300.28 12.896 299.832 12.32C299.384 11.7227 299.16 10.624 299.16 9.024V5.152H295.64V5.696C295.64 9.83467 294.349 12.8107 291.768 14.624H297.272H302.808L303.416 14.464L305.88 15.392C304.899 19.0827 303.288 22.1867 301.048 24.704C302.861 25.92 305.016 26.8373 307.512 27.456C306.637 28.3093 305.827 29.408 305.08 30.752C302.499 29.9627 300.195 28.8 298.168 27.264C296.141 28.736 293.752 29.8987 291 30.752ZM282.488 26.112H285.816V22.432H282.488V24.288V26.112ZM298.104 22.368C299.299 21.1733 300.291 19.7333 301.08 18.048H298.072H295.064C295.832 19.6267 296.845 21.0667 298.104 22.368ZM279.416 18.08C279.352 17.9733 279.32 17.4293 279.32 16.448C279.32 15.4667 279.352 14.9547 279.416 14.912C279.992 14.976 280.792 15.008 281.816 15.008H284.248H286.68C287.491 15.008 288.291 14.976 289.08 14.912C289.144 14.9547 289.176 15.4667 289.176 16.448C289.176 17.408 289.144 17.9093 289.08 17.952C288.504 17.888 287.704 17.856 286.68 17.856H284.248C282.904 17.856 281.293 17.9307 279.416 18.08ZM277.944 9.44C277.88 9.312 277.848 8.736 277.848 7.712C277.848 6.66667 277.88 6.112 277.944 6.048C278.968 6.13333 279.992 6.176 281.016 6.176H284.088H287.16C287.843 6.176 288.867 6.13333 290.232 6.048C290.296 6.112 290.328 6.656 290.328 7.68C290.328 8.704 290.296 9.248 290.232 9.312C289.208 9.22667 288.184 9.184 287.16 9.184H284.088C282.168 9.184 280.12 9.26933 277.944 9.44ZM279.544 4.96C279.48 4.85333 279.448 4.30933 279.448 3.328C279.448 2.34667 279.48 1.83467 279.544 1.792C280.12 1.856 280.909 1.888 281.912 1.888H284.28H286.648C287.459 1.888 288.248 1.856 289.016 1.792C289.08 1.83467 289.112 2.34667 289.112 3.328C289.112 4.30933 289.08 4.82133 289.016 4.864C288.44 4.8 287.651 4.768 286.648 4.768H284.28C282.701 4.768 281.123 4.832 279.544 4.96ZM354.648 30.944C353.347 30.944 352.653 30.8907 352.568 30.784C352.675 29.7173 352.728 28.4373 352.728 26.944V23.072V15.36H349.432C348.472 15.36 347.384 15.4133 346.168 15.52C346.104 15.4347 346.072 14.752 346.072 13.472C346.072 12.192 346.104 11.5093 346.168 11.424C347.064 11.5307 348.152 11.584 349.432 11.584H352.728V6.304C352.728 4.384 352.653 2.58133 352.504 0.895998C353.464 0.853332 354.445 0.863999 355.448 0.927999C356.664 1.01333 357.272 1.152 357.272 1.344C356.76 2.368 356.504 3.392 356.504 4.416V11.584H359.768C360.728 11.584 361.816 11.5307 363.032 11.424C363.096 11.5093 363.128 12.192 363.128 13.472C363.128 14.752 363.096 15.4347 363.032 15.52C362.136 15.4133 361.048 15.36 359.768 15.36H356.504V23.072C356.504 26.08 356.611 28.6507 356.824 30.784C356.675 30.8907 355.949 30.944 354.648 30.944ZM336.472 30.496C335.384 30.496 334.808 30.4427 334.744 30.336C334.829 29.44 334.872 28.5333 334.872 27.616V24.896V19.424H344.952V24.256C344.952 26.0907 345.027 27.7013 345.176 29.088C345.176 29.1947 345.101 29.248 344.952 29.248C344.035 29.1413 342.893 29.088 341.528 29.088H338.104V29.728C338.104 29.8133 338.115 29.9413 338.136 30.112C338.136 30.2187 338.136 30.2933 338.136 30.336C338.115 30.4427 337.56 30.496 336.472 30.496ZM338.104 26.112H341.688V24.288V22.432H338.104V26.112ZM334.968 17.984C334.904 17.92 334.872 17.3973 334.872 16.416C334.872 15.4347 334.904 14.8907 334.968 14.784C336.419 14.9333 338.093 15.008 339.992 15.008H342.52C343.096 15.008 343.939 14.9653 345.048 14.88C345.112 14.944 345.144 15.4667 345.144 16.448C345.144 17.408 345.112 17.92 345.048 17.984C344.237 17.8987 343.395 17.856 342.52 17.856H339.992H337.464C336.909 17.856 336.077 17.8987 334.968 17.984ZM334.968 13.664C334.904 13.6 334.872 13.0667 334.872 12.064C334.872 11.0613 334.904 10.5067 334.968 10.4C336.419 10.5493 338.093 10.624 339.992 10.624H342.52C343.096 10.624 343.939 10.5813 345.048 10.496C345.112 10.56 345.144 11.0933 345.144 12.096C345.144 13.0773 345.112 13.6 345.048 13.664C344.237 13.5787 343.395 13.536 342.52 13.536H339.992H337.464C336.909 13.536 336.077 13.5787 334.968 13.664ZM333.464 9.44C333.4 9.312 333.368 8.736 333.368 7.712C333.368 6.66667 333.4 6.112 333.464 6.048C334.531 6.13333 335.597 6.176 336.664 6.176H339.864H343.096C343.821 6.176 344.888 6.13333 346.296 6.048C346.36 6.112 346.392 6.656 346.392 7.68C346.392 8.704 346.36 9.248 346.296 9.312C345.229 9.22667 344.163 9.184 343.096 9.184H339.864C337.859 9.184 335.725 9.26933 333.464 9.44ZM335.16 4.992C335.096 4.88533 335.064 4.34133 335.064 3.36C335.064 2.35733 335.096 1.824 335.16 1.76C335.971 1.84533 336.792 1.888 337.624 1.888H340.12H342.616C343.171 1.888 344.003 1.84533 345.112 1.76C345.176 1.824 345.208 2.34667 345.208 3.328C345.208 4.30933 345.176 4.832 345.112 4.896C344.301 4.81067 343.469 4.768 342.616 4.768H340.12C338.712 4.768 337.059 4.84267 335.16 4.992Z" fill="#007991"/>
</svg>
