<svg width="100%" style="" viewBox="0 0 363 73" fill="none" xmlns="http://www.w3.org/2000/svg"><path d="M0.9 24.4L1.7 24.5L14.5 6.1H24.5V60.4L17.1 71H44.9L37.5 60.4V6H47.5L60.4 24.5L61.2 24.4V2.49999H0.9V24.4ZM86.4156 -3.8147e-06L67.6156 6.7L74.4156 14.4V62.4L67.0156 71H93.8156L86.4156 62.4V33.3C89.6156 29 93.4156 27.4 97.1156 27.4C104.816 27.4 105.916 32.3 105.916 40V62.5L98.6156 71H125.416L118.016 62.4H117.916V36.6C117.916 27.2 113.116 20.6 102.916 20.6C96.9156 20.6 90.4156 23.7 86.4156 29.9V-3.8147e-06ZM173.518 42.7H173.618L173.518 42.5C173.418 29 166.118 21 154.218 21C137.918 21 129.918 35.8 129.918 48.7C129.918 60.7 137.318 72.4 150.418 72.4C162.318 72.4 169.418 63.2 173.018 54.1L171.518 53.5C170.018 57.7 164.018 61.1 157.218 61.1C149.418 61.1 142.518 55.7 141.418 42.8H173.518V42.7ZM160.618 39.8H141.218V39.1C141.218 33.1 144.318 24 151.918 24C156.318 24 160.618 28.2 160.618 38.9V39.8ZM202.121 70.4V71H231.821L221.121 60.4V38.7H247.621V34.1H221.121V6.1H238.121L249.321 22.9H250.321V2.49999H202.121L208.121 12.9V60.4L202.121 70.4ZM258.573 71H300.973L303.073 47H302.673L296.873 59.1L276.573 59.4L270.373 59.9L270.173 59.4C278.773 49.4 298.773 41.1 298.773 27C298.773 16.4 286.073 11.5 272.673 11.5H259.073V28.8H259.573C263.073 19.8 267.073 14.2 274.173 14.2C281.073 14.2 285.173 18.8 285.173 25.2C285.173 43.3 266.173 61.1 257.773 67.7L258.573 71ZM362.305 49.3L361.205 49.1L348.005 67.4H330.105V38.3H357.405V33.8H330.105V6.1H347.105L358.105 23.5H359.305V2.49999H311.105L317.105 12.9V60.4L311.105 71H361.205L362.305 49.3Z" fill="url(#title_paint0-radial-6-3)"/><defs><radialGradient id="title_paint0-radial-6-3" cx="0" cy="0" r="1" gradientUnits="userSpaceOnUse" gradientTransform="translate(189.022 -12.5) rotate(35.7525) scale(142.91 664.684)"><stop stop-color="#06839C"/><stop offset="1" stop-color="#006A7E"/></radialGradient></defs></svg>

