<svg width="40" height="19" viewBox="0 0 40 19" fill="none" xmlns="http://www.w3.org/2000/svg">
<path d="M6.95 11.15L10 6.7V13.175H13.2V14.3H10V16.35L12.35 18H4.775L6.975 16.35V14.275H0.875L6.9 3.125H10.55L3.45 13.15H6.95V11.15ZM16.109 7.325L14.459 5.75L19.109 2.2V5.75H23.909L23.359 7.1H19.109V13.25C19.109 14.4 19.2507 15.2 19.534 15.65C19.834 16.0833 20.3673 16.3 21.134 16.3C21.634 16.3 22.109 16.175 22.559 15.925C23.009 15.6583 23.3507 15.3 23.584 14.85L23.884 15.25C23.2507 16.3167 22.5673 17.0917 21.834 17.575C21.1173 18.0583 20.2757 18.3 19.309 18.3C18.2923 18.3 17.5007 17.975 16.934 17.325C16.384 16.6583 16.109 15.7 16.109 14.45V7.325ZM27.057 3.85L25.357 1.925L30.057 0.249999V7.725C30.5237 6.99167 31.1237 6.425 31.857 6.025C32.607 5.60833 33.382 5.4 34.182 5.4C35.382 5.4 36.307 5.75 36.957 6.45C37.607 7.15 37.932 8.13333 37.932 9.4V15.85H37.957L39.807 18H33.107L34.932 15.875V10.25C34.932 9.03333 34.7654 8.20833 34.432 7.775C34.0987 7.325 33.532 7.1 32.732 7.1C32.2154 7.1 31.732 7.225 31.282 7.475C30.832 7.725 30.4237 8.09167 30.057 8.575V15.85L31.907 18H25.207L27.057 15.85V3.85Z" fill="url(#paint0_radial_135_1215)"/>
<defs>
<radialGradient id="paint0_radial_135_1215" cx="0" cy="0" r="1" gradientUnits="userSpaceOnUse" gradientTransform="translate(21.1709 -3.37501) rotate(83.2946) scale(44.0513 96.3312)">
<stop stop-color="#06839C"/>
<stop offset="1" stop-color="#007991"/>
</radialGradient>
</defs>
</svg>
