<svg width="100%" style="" viewBox="0 0 505 189" fill="none" xmlns="http://www.w3.org/2000/svg">
<path d="M503.467 143.013C501.416 153.68 492.675 162.714 478.22 169.837C463.783 176.951 443.824 182.063 419.727 184.964C371.544 190.764 307.048 187.697 237.675 174.358C168.302 161.019 107.266 139.95 64.6704 116.695C43.3671 105.064 26.7275 92.9153 15.9582 80.955C5.17526 68.9795 0.407432 57.3479 2.45832 46.6816C4.50921 36.0152 13.2505 26.9811 27.7056 19.8583C42.1425 12.7445 62.101 7.63231 86.1982 4.73139C134.381 -1.069 198.878 1.99801 268.251 15.3368C337.624 28.6756 398.659 49.7453 441.255 73.0003C462.558 84.6306 479.198 96.7797 489.967 108.74C500.75 120.716 505.518 132.347 503.467 143.013Z" stroke="#007991" stroke-width="2"/>
</svg>