<svg width="100%" style="" viewBox="0 0 617 291" fill="none" xmlns="http://www.w3.org/2000/svg">
<path d="M613.535 38.6582C618.114 51.7607 614.236 67.307 602.913 84.3339C591.602 101.344 572.967 119.66 548.405 138.175C499.291 175.198 426.668 212.876 342.178 242.4C257.688 271.923 177.404 287.676 115.92 289.3C85.1725 290.113 59.1853 287.389 39.7416 281.126C20.2785 274.857 7.56209 265.109 2.98362 252.007C-1.59485 238.904 2.28292 223.358 13.6055 206.331C24.9167 189.321 43.552 171.005 68.1138 152.49C117.228 115.467 189.85 77.7891 274.341 48.2653C358.831 18.7414 439.115 2.98841 500.598 1.36443C531.346 0.552283 557.333 3.27566 576.777 9.53875C596.24 15.8081 608.957 25.5558 613.535 38.6582Z" stroke="#007991" stroke-width="2"/>
</svg>