<svg width="100%" style="" viewBox="0 0 513 332" fill="none" xmlns="http://www.w3.org/2000/svg">
<path d="M436.271 273.999L435.731 278.473L442.073 285.422L459.81 293.441L466.114 294.877L452.031 301.128L453.492 296.245L439.408 289.594L442.392 301.171L448.082 302.88L439.308 306.775L440.753 301.401L437.567 289.265L430.028 281.004L423.987 279.451L436.271 273.999Z" fill="#007991"/>
<path d="M409.871 287.196C409.369 285.576 409.186 283.999 409.32 282.465C409.422 280.931 409.828 279.548 410.537 278.315C411.256 277.113 412.237 276.138 413.482 275.391C414.736 274.674 416.259 274.308 418.051 274.291C419.715 274.275 421.254 274.583 422.669 275.214C424.052 275.844 425.293 276.691 426.393 277.754C427.492 278.817 428.412 279.973 429.152 281.223C429.902 282.503 430.466 283.755 430.845 284.977C431.347 286.597 431.547 288.174 431.445 289.708C431.31 291.242 430.9 292.61 430.213 293.812C429.504 295.045 428.523 296.019 427.269 296.736C425.992 297.484 424.458 297.866 422.666 297.882C421.002 297.898 419.474 297.575 418.081 296.913C416.699 296.283 415.457 295.436 414.358 294.373C413.268 293.341 412.348 292.185 411.598 290.904C410.826 289.655 410.25 288.418 409.871 287.196ZM424.86 296.574C425.724 296.566 426.298 296.193 426.583 295.455C426.877 294.747 426.961 293.827 426.834 292.694C426.685 291.591 426.421 290.429 426.042 289.206C425.493 287.434 424.803 285.723 423.971 284.076C423.14 282.428 422.253 280.965 421.311 279.686C420.379 278.438 419.426 277.435 418.454 276.678C417.49 275.951 416.609 275.592 415.809 275.599C414.945 275.607 414.361 275.95 414.057 276.627C413.754 277.304 413.661 278.194 413.778 279.297C413.904 280.43 414.171 281.653 414.578 282.968C415.08 284.588 415.726 286.206 416.516 287.824C417.306 289.441 418.177 290.904 419.128 292.214C420.057 293.554 421.012 294.618 421.995 295.406C422.977 296.193 423.932 296.583 424.86 296.574Z" fill="#007991"/>
<path d="M403.271 282.205C403.175 280.255 402.909 278.693 402.475 277.517C402.009 276.369 401.097 275.693 399.736 275.49C398.438 275.296 397.288 275.87 396.286 277.211L397.026 292.217L400.722 296.433L391.512 295.057L390.521 274.969L387.123 271.035L396.033 272.081L396.222 275.917C396.892 274.843 397.746 274.003 398.784 273.397C399.824 272.822 401.008 272.634 402.338 272.833C404.268 273.122 405.823 274.068 407.002 275.672C408.149 277.271 408.777 279.189 408.888 281.426L409.512 294.083L413.254 298.306L403.997 296.923L403.271 282.205Z" fill="#007991"/>
<path d="M369.043 285.988C366.587 287.762 364.238 288.321 361.996 287.665C360.706 287.287 359.633 286.574 358.776 285.526C357.889 284.469 357.361 283.25 357.192 281.872C356.003 282.886 354.719 283.574 353.34 283.935C351.955 284.328 350.648 284.344 349.419 283.984C348.222 283.634 347.231 282.995 346.447 282.067C345.625 281.162 345.071 280.07 344.784 278.789C344.467 277.5 344.462 276.119 344.769 274.646L347.377 262.148L347.331 262.134L344.667 257.565L357.013 261.178L352.915 263.718L350.532 275.136C349.709 279.083 350.418 281.385 352.66 282.041C353.305 282.23 353.949 282.269 354.591 282.157C355.196 282.069 355.974 281.698 356.925 281.046C356.957 280.423 357.045 279.768 357.189 279.079L359.954 265.828L359.907 265.814L357.244 261.246L369.59 264.859L365.492 267.399L363.109 278.817C362.285 282.764 362.995 285.065 365.237 285.721C365.851 285.901 366.46 285.947 367.066 285.858C367.664 285.8 368.398 285.483 369.268 284.907L372.484 269.495L369.82 264.926L382.166 268.539L378.012 271.113L375.267 284.269L377.645 288.804L368.327 289.418L369.043 285.988Z" fill="#007991"/>
<path d="M338.219 264.851C338.853 263.004 339.171 261.486 339.174 260.296C339.136 259.125 338.47 258.305 337.176 257.837C335.943 257.39 334.57 257.692 333.059 258.744L328.181 272.954L330.321 277.66L321.566 274.487L328.096 255.464L326.149 251.083L334.727 253.886L333.48 257.518C334.556 256.649 335.731 256.036 337.003 255.681C338.265 255.355 339.528 255.422 340.791 255.88C342.626 256.545 343.837 257.749 344.422 259.493C344.977 261.226 344.891 263.151 344.164 265.27L340.05 277.255L342.234 281.978L333.435 278.788L338.219 264.851Z" fill="#007991"/>
<path d="M323.666 259.69C323.871 258.118 323.813 256.596 323.491 255.123C323.127 253.669 322.582 252.4 321.855 251.317C321.128 250.234 320.289 249.503 319.338 249.123C318.744 248.886 318.102 248.888 317.412 249.129C316.722 249.37 316.186 249.948 315.804 250.864C315.434 251.75 315.385 252.574 315.656 253.337C315.885 254.118 316.299 254.869 316.9 255.591C317.458 256.331 318.081 257.08 318.771 257.837C319.418 258.613 320.011 259.435 320.549 260.305C321.076 261.204 321.392 262.192 321.497 263.268C321.603 264.344 321.373 265.561 320.806 266.92C320.35 268.012 319.649 268.904 318.702 269.594C317.714 270.301 316.612 270.74 315.397 270.909C314.14 271.096 312.903 270.946 311.684 270.46L307.583 268.822L305.546 269.093L308.614 261.739L308.863 261.891C308.975 263.865 309.342 265.562 309.963 266.981C310.555 268.389 311.406 269.298 312.518 269.707C313.214 269.951 313.904 269.917 314.589 269.605C315.262 269.322 315.795 268.708 316.19 267.763C316.522 266.966 316.547 266.2 316.264 265.467C315.98 264.734 315.517 264.015 314.875 263.31C314.233 262.606 313.546 261.884 312.815 261.143C312.084 260.403 311.434 259.593 310.866 258.711C310.285 257.859 309.915 256.919 309.754 255.89C309.594 254.861 309.785 253.697 310.327 252.398C310.857 251.128 311.566 250.136 312.453 249.422C313.34 248.708 314.287 248.225 315.294 247.973C316.3 247.72 317.305 247.639 318.307 247.73C319.28 247.808 320.138 247.996 320.881 248.292C321.445 248.518 322.11 248.835 322.876 249.244C323.624 249.612 324.368 250.03 325.109 250.498C325.82 250.954 326.409 251.413 326.875 251.875L324.023 259.832L323.666 259.69Z" fill="#007991"/>
<path d="M296.205 262.948L289.453 260.059L291.042 259.174L296.823 261.648L302.388 249.943C303.281 248.065 303.721 246.618 303.707 245.604C303.651 244.606 303.166 243.912 302.254 243.521C300.96 242.967 299.385 243.302 297.529 244.525L297.329 243.605C299.226 242.295 301.02 241.463 302.711 241.108C304.359 240.77 305.801 240.865 307.036 241.394C308.566 242.049 309.469 243.166 309.745 244.745C309.978 246.34 309.62 248.134 308.672 250.129L302.304 263.524L304.413 266.461L293.279 269.104L296.205 262.948Z" fill="#007991"/>
<path d="M287.294 233.299L282.402 235.043L277.038 244.802C276.083 246.541 275.531 247.974 275.385 249.103C275.194 250.246 275.722 251.106 276.971 251.685C277.348 251.86 277.969 251.99 278.834 252.074C279.698 252.158 280.726 251.912 281.916 251.338L289.152 238.171L287.773 233.521L299.445 238.931L294.378 240.594L287.904 252.372L289.086 256.984L279.349 256.007L281.453 252.179C279.858 253.094 278.273 253.591 276.699 253.671C275.096 253.737 273.86 253.568 272.989 253.164C271.188 252.33 270.142 251.053 269.848 249.334C269.539 247.642 269.932 245.801 271.026 243.81L277.176 232.62L275.623 227.889L287.294 233.299Z" fill="#007991"/>
<path d="M265 245.506L265.354 246.212C264.258 246.42 263.213 246.759 262.219 247.229C261.179 247.713 260.426 248.338 259.961 249.104C259.628 249.651 259.515 250.145 259.619 250.587C259.695 251.014 259.793 251.435 259.914 251.85L260.822 253.946L255.127 255.678C254.804 255.165 254.526 254.549 254.292 253.83C254.012 253.125 253.843 252.42 253.785 251.718C253.682 251.028 253.772 250.451 254.054 249.986C254.669 248.974 255.53 248.172 256.636 247.578C257.697 246.999 258.815 246.571 259.989 246.295C261.135 246.005 262.186 245.811 263.141 245.712C264.068 245.598 264.687 245.53 265 245.506Z" fill="#007991"/>
<path d="M247.401 240.001L240.863 236.657L242.59 235.932L248.188 238.795L255.272 227.943C256.409 226.201 257.032 224.839 257.14 223.858C257.202 222.889 256.792 222.179 255.909 221.727C254.655 221.086 253.009 221.28 250.968 222.31L250.875 221.404C252.968 220.294 254.898 219.637 256.665 219.433C258.386 219.241 259.845 219.452 261.042 220.064C262.523 220.821 263.31 221.974 263.401 223.522C263.447 225.083 262.866 226.787 261.659 228.636L253.553 241.057L255.35 244.067L243.676 245.709L247.401 240.001Z" fill="#007991"/>
<path d="M224.239 224.238C222.867 224.634 221.546 224.859 220.274 224.912C218.956 224.975 217.696 224.672 216.494 224.002C215.012 223.176 214.031 222.03 213.549 220.563C213.04 219.082 212.984 217.472 213.382 215.734C213.762 214.022 214.549 212.375 215.744 210.791C216.515 209.77 217.531 208.74 218.792 207.701C220.034 206.687 221.461 205.85 223.072 205.188C224.637 204.536 226.322 204.224 228.128 204.251C229.934 204.279 231.802 204.83 233.73 205.905C234.624 206.404 235.367 206.945 235.959 207.529C236.542 208.072 237.268 208.767 238.138 209.615L241.879 210.34L224.902 232.827L225.526 237.367L215.996 235.156L224.239 224.238ZM233.551 211.902C233.441 211.26 233.303 210.548 233.138 209.767C232.926 208.995 232.638 208.272 232.274 207.597C231.863 206.932 231.349 206.428 230.734 206.086C229.924 205.634 229.093 205.551 228.241 205.838C227.369 206.151 226.522 206.694 225.699 207.469C224.848 208.228 224.056 209.093 223.323 210.064C221.877 211.979 220.86 213.826 220.273 215.603C219.638 217.39 219.422 218.939 219.624 220.249C219.827 221.56 220.417 222.488 221.395 223.033C221.814 223.267 222.329 223.427 222.939 223.513C223.549 223.599 224.185 223.573 224.846 223.433L233.551 211.902Z" fill="#007991"/>
<path d="M198.294 201.519L209.902 208.387C211.047 206.716 211.75 205.205 212.012 203.854C212.225 202.512 212.113 201.363 211.676 200.407C211.239 199.451 210.621 198.737 209.822 198.264C209.161 197.873 208.384 197.597 207.491 197.435C206.549 197.282 205.629 197.252 204.73 197.344C203.804 197.419 203.029 197.659 202.406 198.061L201.971 197.473C203.409 196.635 204.971 195.944 206.657 195.4C208.295 194.865 209.942 194.591 211.596 194.579C213.223 194.55 214.725 194.944 216.102 195.758C217.617 196.655 218.604 197.863 219.065 199.384C219.505 200.929 219.489 202.552 219.016 204.255C218.544 205.958 217.693 207.547 216.465 209.022C215.482 210.202 214.296 211.281 212.907 212.258C211.49 213.218 209.977 213.974 208.366 214.526C206.728 215.062 205.098 215.291 203.478 215.213C201.809 215.143 200.231 214.668 198.744 213.788C196.706 212.582 195.596 210.879 195.414 208.679C195.231 206.479 196.161 204.129 198.201 201.629L198.222 201.531L198.263 201.556L198.294 201.519ZM202.425 206.11C201.216 207.561 200.416 208.794 200.022 209.81C199.581 210.833 199.427 211.66 199.561 212.289C199.646 212.927 199.895 213.368 200.308 213.613C201.135 214.102 202.089 214.189 203.173 213.876C204.208 213.571 205.238 213.024 206.264 212.237C207.27 211.474 208.131 210.662 208.848 209.801L209.37 209.174L203.008 205.41L202.425 206.11Z" fill="#007991"/>
<path d="M185.479 182.693C188.151 182.393 190.165 182.304 191.522 182.429C192.852 182.536 193.947 182.866 194.809 183.419C196.048 184.215 196.691 185.225 196.739 186.451C196.76 187.66 196.208 188.856 195.083 190.038C194.135 191.035 192.962 191.72 191.566 192.093C190.148 192.489 188.332 192.574 186.118 192.348C183.882 192.144 181.066 191.662 177.67 190.9C176.369 192.268 175.435 193.386 174.868 194.255C174.302 195.123 174.064 195.829 174.154 196.373C174.217 196.899 174.585 197.378 175.258 197.811C176.336 198.502 177.75 198.794 179.501 198.686C181.225 198.561 183.52 198.018 186.386 197.058L186.669 197.239L181.375 202.803L166.31 193.128L169.713 191.056L181.261 178.92L181.221 178.894L180.383 174.715L188.258 179.773L185.479 182.693ZM178.365 190.17C180.946 190.557 183.054 190.53 184.691 190.086C186.278 189.649 187.601 188.874 188.66 187.762C190.182 186.162 190.23 184.904 188.802 183.988C188.426 183.745 187.944 183.567 187.359 183.453C186.774 183.338 185.883 183.363 184.685 183.528L178.365 190.17Z" fill="#007991"/>
<path d="M148.284 184.111L148.563 184.299C148.314 185.151 148.135 186.088 148.027 187.11C147.918 188.133 147.965 189.09 148.169 189.983C148.323 190.881 148.759 191.571 149.475 192.055C150.244 192.574 151.101 192.68 152.047 192.373C152.992 192.067 153.936 191.457 154.877 190.543C155.383 190.053 155.845 189.496 156.263 188.871C156.632 188.251 156.953 187.656 157.227 187.085L151.145 183.037L153.053 182.625L158.226 186.115L171.523 173.212L170.485 168.262L181.825 175.914L176.297 176.434L163.311 189.036L164.105 191.669L164.071 191.703L161.962 190.28C160.7 191.242 159.238 192.05 157.575 192.704C155.886 193.339 154.128 193.627 152.302 193.566C150.476 193.505 148.741 192.92 147.096 191.81L143.117 189.125L148.284 184.111Z" fill="#007991"/>
<path d="M144.557 167.034C142.181 171.393 141.75 174.109 143.265 175.181C143.761 175.532 144.36 175.708 145.061 175.707C145.762 175.706 146.67 175.394 147.786 174.769C148.878 174.165 150.269 173.104 151.959 171.586L159.993 164.367L159.063 159.35L170.306 167.31L164.694 167.695L152.661 178.507L152.576 182.863L137.924 172.49L144.244 166.812L144.557 167.034Z" fill="#007991"/>
<path d="M143.042 152.811C145.788 152.78 147.844 152.89 149.21 153.14C150.549 153.372 151.628 153.796 152.446 154.412C153.622 155.298 154.17 156.333 154.092 157.519C153.987 158.685 153.302 159.783 152.036 160.813C150.969 161.681 149.706 162.227 148.249 162.452C146.767 162.697 144.913 162.603 142.687 162.171C140.437 161.759 137.626 161.022 134.255 159.96C132.79 161.151 131.725 162.138 131.059 162.92C130.393 163.702 130.078 164.359 130.113 164.891C130.123 165.404 130.447 165.901 131.086 166.382C132.108 167.153 133.514 167.57 135.305 167.636C137.07 167.682 139.458 167.381 142.47 166.733L142.738 166.935L136.781 171.782L122.481 161.008L126.154 159.341L139.149 148.77L139.111 148.741L138.694 144.634L146.17 150.267L143.042 152.811ZM135.037 159.324C137.619 159.947 139.764 160.124 141.472 159.855C143.131 159.587 144.555 158.969 145.747 158C147.46 156.606 147.639 155.399 146.284 154.379C145.927 154.109 145.456 153.891 144.874 153.724C144.291 153.558 143.383 153.496 142.149 153.538L135.037 159.324Z" fill="#007991"/>
<path d="M122.991 158.17L113.36 154.441L129.345 142.636L129.893 137.963L139.935 146.003L133.842 146.235L123.416 153.934L122.991 158.17ZM114.042 162.415L108.292 162.566L108.758 158.185L114.509 157.975L114.042 162.415Z" fill="#007991"/>
<path d="M114.447 130.835C116.358 130.571 118.061 130.554 119.557 130.785C121.028 130.995 122.261 131.527 123.256 132.382C124.372 133.342 125.001 134.512 125.144 135.892C125.259 137.29 124.912 138.717 124.102 140.171C123.269 141.605 121.97 142.903 120.206 144.065C118.122 145.438 115.904 146.311 113.551 146.682C111.171 147.071 108.859 146.991 106.616 146.442C104.373 145.893 102.402 144.889 100.704 143.429L98.3745 141.426L94.9275 143.697L94.3163 147.859L85.189 143.481L110.841 126.578L110.953 122.414L118.375 128.247L114.447 130.835ZM101.821 139.154C101.704 140.19 101.747 141.12 101.951 141.944C102.127 142.785 102.519 143.467 103.125 143.989C104.023 144.761 105.283 145.073 106.905 144.925C108.503 144.757 110.277 144.03 112.228 142.745C114.018 141.565 115.376 140.338 116.302 139.065C117.204 137.771 117.678 136.555 117.725 135.419C117.721 134.279 117.282 133.334 116.409 132.583C115.996 132.228 115.576 131.989 115.149 131.865C114.671 131.738 114.089 131.624 113.405 131.522L101.821 139.154Z" fill="#007991"/>
<path d="M79.7261 123.045L74.5443 117.841L76.5708 117.932L81.0076 122.388L92.5408 116.476C94.3918 115.527 95.5721 114.683 96.0819 113.942C96.5405 113.193 96.4199 112.467 95.72 111.764C94.7265 110.766 92.9975 110.283 90.533 110.313L90.81 109.555C93.36 109.48 95.5618 109.705 97.4155 110.227C99.2181 110.742 100.594 111.475 101.542 112.428C102.716 113.607 103.032 114.832 102.491 116.102C101.899 117.365 100.62 118.5 98.6553 119.507L85.4562 126.272L86.0256 129.371L73.6605 126.154L79.7261 123.045Z" fill="#007991"/>
<path d="M70.2233 96.5563C71.7945 95.9178 73.5203 95.5273 75.4007 95.3846C77.2601 95.2177 79.1389 95.3046 81.037 95.6452C82.9055 95.9979 84.6773 96.586 86.3525 97.4096C87.9981 98.2453 89.4074 99.3404 90.5806 100.695C91.6699 101.953 92.3014 103.168 92.4749 104.34C92.6275 105.488 92.4363 106.563 91.9015 107.565C91.3666 108.567 90.6067 109.448 89.6216 110.208C88.6069 110.98 87.5067 111.607 86.3208 112.089C84.7496 112.727 83.0342 113.13 81.1748 113.297C79.2945 113.44 77.4305 113.347 75.583 113.018C73.6848 112.678 71.913 112.09 70.2675 111.254C68.5713 110.406 67.1367 109.305 65.9635 107.95C64.8741 106.692 64.268 105.483 64.1451 104.323C63.9925 103.176 64.1837 102.1 64.7185 101.098C65.2237 100.108 65.9836 99.2272 66.9983 98.4552C67.9624 97.6711 69.0374 97.0381 70.2233 96.5563ZM68.9056 109.404C69.4712 110.057 70.2774 110.432 71.3241 110.53C72.3411 110.64 73.4714 110.557 74.715 110.281C75.908 109.992 77.0974 109.607 78.2832 109.125C80.0027 108.427 81.5581 107.631 82.9496 106.739C84.341 105.846 85.4812 104.942 86.3702 104.024C87.2295 103.119 87.7889 102.238 88.0482 101.381C88.2779 100.535 88.1308 99.8101 87.6071 99.2053C87.0415 98.5522 86.2649 98.1646 85.2775 98.0426C84.2901 97.9206 83.1895 97.9917 81.9755 98.2561C80.732 98.5324 79.4728 98.9296 78.198 99.4475C76.6268 100.086 75.1498 100.833 73.7671 101.689C72.3844 102.545 71.2337 103.438 70.315 104.367C69.3458 105.284 68.7167 106.178 68.4277 107.047C68.1387 107.917 68.298 108.702 68.9056 109.404Z" fill="#007991"/>
<path d="M66.5674 76.4253C68.4601 76.9502 70.0664 77.6128 71.3861 78.4129C72.6907 79.1847 73.6525 80.1491 74.2714 81.306C74.9657 82.6039 75.1249 83.8954 74.7491 85.1803C74.3416 86.4702 73.4892 87.6015 72.1917 88.574C70.8791 89.5183 69.18 90.1568 67.0944 90.4895C64.6296 90.8826 62.2234 90.7764 59.876 90.1709C57.4969 89.5703 55.3551 88.5798 53.4505 87.1993C51.5459 85.8188 50.0653 84.1409 49.0087 82.1658L47.5596 79.457L43.4831 80.1072L41.3729 83.5674L34.4145 76.0413L64.751 71.2027L66.3936 67.5415L71.2126 75.6844L66.5674 76.4253ZM51.6361 78.8068C51.1437 79.6816 50.841 80.5261 50.7278 81.3403C50.583 82.1597 50.6993 82.922 51.0767 83.6274C51.6352 84.6714 52.7035 85.4504 54.2817 85.9643C55.8448 86.4499 57.7797 86.5088 60.0866 86.1408C62.2038 85.8031 63.9324 85.2518 65.2723 84.4869C66.5972 83.6937 67.4914 82.8008 67.955 81.8081C68.3719 80.7923 68.3086 79.7765 67.7652 78.7607C67.5086 78.281 67.2025 77.9011 66.8469 77.621C66.4445 77.3177 65.9406 76.9846 65.3349 76.6219L51.6361 78.8068Z" fill="#007991"/>
<path d="M51.7682 56.3048C46.9758 57.5125 44.7117 59.0349 44.9761 60.872C45.0627 61.4738 45.3473 62.0316 45.8298 62.5455C46.3124 63.0594 47.1636 63.514 48.3835 63.9093C49.5715 64.3017 51.2966 64.6037 53.5587 64.8154L64.3117 65.8214L67.308 61.7428L69.2703 75.3783L65.1322 71.5227L49.0265 70.0158L45.8115 72.9023L43.2544 55.1333L51.7135 55.9247L51.7682 56.3048Z" fill="#007991"/>
<path d="M63.8697 44.876L56.9595 56.4594C58.9001 57.189 60.6327 57.5519 62.1572 57.5479C63.6693 57.5024 64.9448 57.2002 65.9835 56.6413C67.0223 56.0825 67.7794 55.4046 68.2548 54.6076C68.6483 53.9481 68.906 53.2049 69.028 52.3781C69.1376 51.5098 69.1117 50.682 68.9502 49.8948C68.8051 49.0801 68.4877 48.4297 67.998 47.9438L68.6259 47.4513C69.655 48.5889 70.5281 49.8635 71.2453 51.275C71.95 52.6451 72.3632 54.0684 72.4846 55.5451C72.6224 56.9943 72.2815 58.4059 71.4618 59.7799C70.5601 61.2914 69.2756 62.3866 67.6083 63.0656C65.9123 63.7306 64.0985 64.0017 62.167 63.879C60.2355 63.7563 58.4061 63.2756 56.679 62.4369C55.2973 61.766 54.0159 60.8957 52.8349 59.826C51.6704 58.7289 50.7275 57.5091 50.0063 56.1665C49.3015 54.7964 48.9398 53.3803 48.9211 51.9181C48.89 50.4145 49.3171 48.9206 50.2024 47.4366C51.4156 45.403 53.2442 44.1113 55.6884 43.5614C58.1325 43.0116 60.8164 43.4288 63.7402 44.8131L63.8511 44.8138L63.8265 44.855L63.8697 44.876ZM59.0134 49.3759C57.3151 48.5512 55.8864 48.0524 54.7273 47.8794C53.5559 47.665 52.6231 47.6728 51.929 47.9029C51.2225 48.0915 50.7463 48.3919 50.5004 48.8041C50.0086 49.6285 49.9729 50.4973 50.3935 51.4103C50.8016 52.2819 51.4788 53.1069 52.4251 53.8854C53.3427 54.6499 54.3052 55.2768 55.3127 55.766L56.0467 56.1225L59.8338 49.7743L59.0134 49.3759Z" fill="#007991"/>
<path d="M78.8066 54.3294C78.1744 56.2458 77.5337 57.6256 76.8843 58.4689C76.2655 59.3023 75.4686 59.8758 74.4938 60.1894C73.0925 60.64 71.6562 60.5944 70.185 60.0524C68.7442 59.5006 67.5311 58.5743 66.5458 57.2733C65.715 56.1764 65.3367 55.0767 65.4109 53.9743C65.4658 52.8463 66.0371 51.5999 67.1248 50.235C68.1932 48.8445 69.8073 47.1993 71.9671 45.2992C70.8272 43.7941 69.8471 42.6501 69.0267 41.8671C68.2064 41.0841 67.4574 40.5953 66.7797 40.4009C66.1325 40.1966 65.4282 40.2169 64.6666 40.4619C63.448 40.8538 62.5788 41.6567 62.0587 42.8708C61.5692 44.0751 61.3635 45.8543 61.4417 48.2084L61.1218 48.3113L56.4849 42.1891L73.5291 36.7075L74.7264 39.9389L84.8407 53.2929L84.8863 53.2782L90.1515 54.6779L81.241 57.5436L78.8066 54.3294ZM72.5757 46.1027C71.1611 47.6362 70.4138 49.0503 70.3336 50.345C70.2646 51.6044 70.6938 52.8463 71.6212 54.0707C72.9543 55.8309 74.4281 56.4513 76.0427 55.9321C76.4692 55.7949 76.8585 55.5587 77.2107 55.2234C77.5628 54.888 77.863 54.2839 78.1111 53.4111L72.5757 46.1027Z" fill="#007991"/>
<path d="M84.8569 39.1462C86.4297 36.9141 88.382 35.8671 90.714 36.0053C92.0556 36.0847 93.329 36.5322 94.534 37.3477C95.7711 38.165 96.739 39.2145 97.4377 40.496C98.1382 39.2664 99.055 38.3286 100.188 37.6826C101.315 37.0053 102.517 36.7045 103.795 36.7802C105.041 36.854 106.209 37.2487 107.299 37.9644C108.415 38.6506 109.358 39.5745 110.128 40.7362C110.929 41.8998 111.477 43.219 111.773 44.6936L114.282 57.2127L114.33 57.2155L118.593 61.0024L105.751 60.2417L108.542 56.9191L106.249 45.4825C105.457 41.5292 103.895 39.4834 101.563 39.3453C100.892 39.3055 100.282 39.4089 99.7313 39.6553C99.2066 39.8722 98.633 40.3963 98.0104 41.2275C98.2258 41.8294 98.4026 42.4754 98.5409 43.1657L101.201 56.4377L101.249 56.4406L105.512 60.2275L92.6701 59.4667L95.4605 56.1442L93.1683 44.7076C92.376 40.7542 90.8138 38.7085 88.4819 38.5703C87.8431 38.5325 87.2613 38.622 86.7366 38.839C86.2056 39.0245 85.6514 39.4878 85.0739 40.2286L88.1679 55.6656L92.4305 59.4526L79.5891 58.6918L82.4179 55.325L79.7767 42.1471L75.7921 38.3301L84.1683 35.7105L84.8569 39.1462Z" fill="#007991"/>
<path d="M132.292 63.0121C130.372 64.3056 128.845 65.1397 127.71 65.5143C126.606 65.8966 125.557 65.9651 124.563 65.7199C123.134 65.3674 122.047 64.5757 121.302 63.3448C120.589 62.1216 120.332 60.7001 120.532 59.0804C120.7 57.7147 121.224 56.5839 122.102 55.688C122.985 54.7603 124.359 54.0029 126.224 53.4158C128.093 52.7969 130.578 52.248 133.678 51.7692C133.909 49.8954 133.996 48.4114 133.939 47.3174C133.882 46.2234 133.661 45.4162 133.277 44.8961C132.924 44.3836 132.359 44.0315 131.582 43.84C130.34 43.5334 129.063 43.7586 127.753 44.5154C126.475 45.2799 124.99 46.6807 123.298 48.7179L122.972 48.6374L123.911 41.0151L141.294 45.3028L139.823 48.6705L137.773 65.2967L137.82 65.3082L140.886 69.2554L131.799 67.0138L132.292 63.0121ZM133.555 52.7696C131.309 53.3283 129.673 54.1356 128.646 55.1914C127.655 56.2231 127.065 57.5012 126.877 59.0256C126.607 61.217 127.295 62.5158 128.942 62.922C129.377 63.0293 129.857 63.0331 130.381 62.9334C130.906 62.8337 131.59 62.4788 132.433 61.8687L133.555 52.7696Z" fill="#007991"/>
<path d="M156.77 52.6534L154.612 48.0793L157.978 48.1071L158.446 46.3443L156.288 41.7701L165.579 41.8962L157.889 70.8441L160.21 75.9242L147.967 71.975L152.407 69.0758L156.77 52.6534Z" fill="#007991"/>
<path d="M167.501 55.4976L177.005 55.4476L170.85 74.3423L172.92 79.4512L160.791 75.1635L165.419 72.4224L169.433 60.0998L167.501 55.4976ZM172.211 47.3908L176.613 44.8756L178.592 49.6466L174.219 52.2235L172.211 47.3908Z" fill="#007991"/>
<path d="M189.329 60.576L196.185 63.209L194.681 64.1737L188.811 61.9193L184.141 74.0087C183.391 75.949 183.059 77.4323 183.143 78.4586C183.268 79.4665 183.793 80.1483 184.719 80.504C186.034 81.0088 187.563 80.602 189.307 79.2837L189.568 80.2066C187.79 81.6145 186.079 82.5345 184.437 82.9665C182.837 83.3801 181.409 83.346 180.154 82.8642C178.601 82.2676 177.633 81.1761 177.251 79.5896C176.911 77.9848 177.138 76.1525 177.934 74.0928L183.278 60.2571L180.995 57.375L191.785 54.2178L189.329 60.576Z" fill="#007991"/>
<path d="M205.387 67.0076L212.171 69.8197L210.607 70.7296L204.798 68.3218L199.502 80.1501C198.651 82.0484 198.244 83.5069 198.278 84.5254C198.356 85.5269 198.852 86.2176 199.769 86.5974C201.069 87.1366 202.631 86.7797 204.454 85.5269L204.672 86.4484C202.81 87.7888 201.041 88.6483 199.364 89.0268C197.73 89.3883 196.293 89.3118 195.051 88.7972C193.514 88.16 192.591 87.0504 192.283 85.4685C192.018 83.8696 192.337 82.0625 193.239 80.0473L199.301 66.5106L197.139 63.589L208.172 60.7868L205.387 67.0076Z" fill="#007991"/>
<path d="M215.239 74.876L213.905 70.2561L217.343 70.6688L218.159 69.0375L216.825 64.4176L226.309 65.6042L212.911 92.3925L214.316 97.5148L202.541 92.3349L207.638 90.0732L215.239 74.876Z" fill="#007991"/>
<path d="M236.65 92.9068L224.418 87.2216C223.602 89.0953 223.182 90.7479 223.157 92.1796C223.176 93.5968 223.474 94.7738 224.051 95.7107C224.628 96.6475 225.337 97.3115 226.178 97.7027C226.875 98.0264 227.663 98.2168 228.543 98.2739C229.468 98.3165 230.352 98.2345 231.195 98.0281C232.068 97.8352 232.768 97.4918 233.296 96.998L233.81 97.5536C232.575 98.5993 231.198 99.5081 229.678 100.28C228.202 101.037 226.675 101.524 225.096 101.741C223.547 101.971 222.047 101.749 220.596 101.075C219 100.333 217.855 99.2026 217.163 97.6837C216.485 96.1368 216.231 94.452 216.399 92.6292C216.567 90.8063 217.115 89.0546 218.043 87.3739C218.786 86.0294 219.74 84.7653 220.904 83.5815C222.097 82.4113 223.417 81.4408 224.864 80.67C226.34 79.9127 227.859 79.4744 229.42 79.3552C231.025 79.2214 232.612 79.5187 234.179 80.247C236.326 81.2452 237.67 82.873 238.21 85.1305C238.75 87.3881 238.253 89.9382 236.719 92.7808L236.716 92.8851L236.673 92.8648L236.65 92.9068ZM231.94 88.6582C232.852 87.0056 233.412 85.6289 233.619 84.5281C233.87 83.4129 233.88 82.5372 233.648 81.9013C233.46 81.2508 233.149 80.8244 232.713 80.622C231.843 80.2174 230.916 80.2443 229.934 80.7029C228.995 81.1469 228.102 81.8404 227.253 82.7834C226.419 83.6984 225.731 84.6461 225.19 85.6265L224.795 86.3408L231.499 89.4566L231.94 88.6582Z" fill="#007991"/>
<path d="M258.202 95.8753C259.534 95.4151 260.826 95.1312 262.077 95.0235C263.375 94.9037 264.636 95.1584 265.86 95.7875C267.368 96.563 268.401 97.6844 268.959 99.1517C269.545 100.634 269.69 102.264 269.394 104.044C269.116 105.797 268.432 107.502 267.341 109.159C266.637 110.229 265.692 111.317 264.506 112.424C263.337 113.505 261.976 114.415 260.422 115.154C258.915 115.882 257.269 116.27 255.485 116.318C253.701 116.367 251.827 115.887 249.863 114.877C248.952 114.409 248.189 113.891 247.572 113.323C246.966 112.797 246.21 112.122 245.305 111.299L241.571 110.721L257.066 87.1879L256.195 82.6085L265.725 84.4494L258.202 95.8753ZM249.703 108.785C249.848 109.432 250.024 110.148 250.231 110.934C250.483 111.708 250.808 112.429 251.205 113.099C251.649 113.756 252.183 114.245 252.81 114.567C253.635 114.992 254.46 115.04 255.285 114.713C256.127 114.359 256.933 113.772 257.702 112.951C258.5 112.145 259.233 111.234 259.901 110.218C261.221 108.213 262.121 106.297 262.601 104.469C263.127 102.629 263.253 101.048 262.98 99.727C262.707 98.406 262.073 97.4895 261.077 96.9774C260.65 96.7579 260.133 96.6174 259.526 96.5557C258.919 96.4941 258.293 96.5479 257.648 96.7172L249.703 108.785Z" fill="#007991"/>
<path d="M272.924 103.036L282.737 104.735L271.103 120.846L271.808 125.887L260.503 119.749L266.041 118.097L273.629 107.59L272.924 103.036ZM280.049 96.5037L285.292 95.0167L285.997 99.7332L280.768 101.282L280.049 96.5037Z" fill="#007991"/>
<path d="M305.902 112.91C304.925 113.958 304.021 114.809 303.188 115.465C302.356 116.121 301.349 116.769 300.168 117.409C300.335 118.997 299.868 120.498 298.767 121.912C297.744 123.224 296.396 124.206 294.724 124.858C293.079 125.526 291.324 125.821 289.457 125.744C287.611 125.641 285.853 125.115 284.183 124.166C283.571 123.818 283.104 123.517 282.782 123.26C282.487 123.02 282.268 122.786 282.124 122.559C281.257 122.539 280.593 122.617 280.135 122.794C279.724 122.961 279.38 123.221 279.105 123.574C278.653 124.155 278.537 124.69 278.757 125.18C278.978 125.669 279.436 126.112 280.131 126.507L290.606 132.46C290.577 133.063 290.46 133.652 290.253 134.227C290.066 134.776 289.697 135.404 289.146 136.11C288.005 137.574 286.526 138.7 284.707 139.488C282.897 140.316 280.922 140.687 278.783 140.6C276.671 140.528 274.543 139.884 272.401 138.666C270.009 137.306 268.414 135.799 267.616 134.144C266.819 132.489 266.882 131.068 267.807 129.882C268.436 129.074 269.263 128.579 270.289 128.397C271.342 128.23 272.592 128.249 274.039 128.452C273.56 127.779 273.276 127.036 273.189 126.221C273.129 125.422 273.374 124.669 273.925 123.963C274.515 123.205 275.439 122.638 276.697 122.26C277.974 121.857 279.564 121.723 281.467 121.857C280.561 120.65 280.11 119.374 280.115 118.029C280.139 116.659 280.633 115.356 281.597 114.119C282.639 112.781 283.987 111.799 285.639 111.172C287.292 110.545 289.032 110.296 290.859 110.424C292.714 110.568 294.462 111.106 296.103 112.039C296.66 112.355 297.03 112.602 297.213 112.779C297.416 112.931 297.595 113.087 297.75 113.248L305.765 112.778L305.902 112.91ZM293.689 111.814C292.911 111.372 292.125 111.453 291.332 112.058C290.566 112.68 289.702 113.609 288.738 114.846C287.007 117.067 285.911 119.066 285.449 120.843C285.035 122.611 285.314 123.771 286.288 124.325C287.039 124.752 287.859 124.653 288.747 124.029C289.635 123.404 290.59 122.436 291.613 121.123C292.715 119.71 293.521 118.366 294.033 117.091C294.593 115.806 294.831 114.703 294.746 113.781C294.709 112.849 294.357 112.194 293.689 111.814ZM274.627 129.552C273.926 129.627 273.303 129.783 272.758 130.019C272.221 130.296 271.716 130.738 271.244 131.343C270.339 132.504 270.032 133.696 270.324 134.918C270.644 136.156 271.708 137.289 273.517 138.317C274.629 138.949 275.81 139.366 277.059 139.566C278.317 139.807 279.507 139.773 280.631 139.465C281.762 139.198 282.692 138.597 283.42 137.663C283.695 137.31 283.968 136.882 284.239 136.381C284.509 135.879 284.602 135.476 284.517 135.173L274.627 129.552Z" fill="#007991"/>
<path d="M326.067 124.949C325.04 125.951 324.094 126.763 323.229 127.383C322.363 128.003 321.322 128.61 320.106 129.203C320.21 130.777 319.679 132.243 318.511 133.603C317.427 134.865 316.029 135.791 314.317 136.38C312.632 136.985 310.851 137.219 308.972 137.082C307.115 136.92 305.364 136.343 303.72 135.352C303.117 134.988 302.658 134.675 302.344 134.412C302.056 134.165 301.845 133.927 301.709 133.697C300.835 133.65 300.164 133.705 299.694 133.864C299.273 134.016 298.916 134.261 298.625 134.601C298.145 135.16 298.007 135.684 298.209 136.175C298.412 136.665 298.856 137.117 299.541 137.53L309.858 143.751C309.805 144.345 309.663 144.923 309.431 145.483C309.221 146.019 308.823 146.627 308.24 147.307C307.03 148.715 305.493 149.778 303.629 150.496C301.771 151.255 299.765 151.557 297.612 151.4C295.486 151.261 293.367 150.555 291.257 149.283C288.901 147.862 287.354 146.321 286.617 144.661C285.88 143 286.001 141.6 286.981 140.459C287.648 139.682 288.502 139.22 289.543 139.074C290.611 138.944 291.87 139.003 293.321 139.252C292.865 138.571 292.609 137.828 292.554 137.021C292.526 136.23 292.804 135.495 293.387 134.815C294.013 134.087 294.967 133.557 296.25 133.225C297.554 132.869 299.162 132.788 301.075 132.983C300.21 131.762 299.807 130.487 299.866 129.16C299.946 127.807 300.497 126.537 301.518 125.347C302.623 124.06 304.021 123.135 305.712 122.57C307.404 122.005 309.167 121.816 311.004 122.002C312.868 122.205 314.608 122.794 316.225 123.768C316.773 124.099 317.136 124.355 317.314 124.535C317.512 124.692 317.686 124.852 317.837 125.016L325.934 124.814L326.067 124.949ZM313.801 123.467C313.034 123.005 312.238 123.059 311.414 123.631C310.618 124.22 309.709 125.109 308.687 126.298C306.853 128.434 305.667 130.372 305.13 132.112C304.641 133.844 304.876 134.999 305.835 135.577C306.575 136.023 307.405 135.953 308.325 135.365C309.246 134.778 310.248 133.853 311.332 132.591C312.499 131.231 313.367 129.93 313.935 128.688C314.55 127.438 314.835 126.357 314.787 125.444C314.787 124.523 314.459 123.864 313.801 123.467ZM293.869 140.356C293.16 140.407 292.525 140.541 291.966 140.756C291.413 141.012 290.887 141.432 290.386 142.015C289.427 143.131 289.07 144.298 289.315 145.514C289.588 146.747 290.614 147.9 292.396 148.974C293.492 149.635 294.665 150.085 295.916 150.323C297.174 150.602 298.375 150.608 299.52 150.34C300.672 150.114 301.633 149.551 302.405 148.653C302.696 148.313 302.989 147.9 303.282 147.413C303.575 146.927 303.685 146.532 303.612 146.23L293.869 140.356Z" fill="#007991"/>
<path d="M333.655 146.814L322.275 139.574C321.037 141.171 320.252 142.629 319.922 143.947C319.641 145.258 319.697 146.394 320.091 147.353C320.485 148.312 321.074 149.04 321.857 149.538C322.505 149.951 323.276 150.255 324.17 150.451C325.112 150.64 326.04 150.709 326.952 150.655C327.891 150.619 328.684 150.416 329.333 150.046L329.743 150.643C328.251 151.407 326.64 152.022 324.911 152.488C323.231 152.947 321.555 153.148 319.884 153.091C318.241 153.052 316.744 152.603 315.394 151.744C313.909 150.799 312.972 149.569 312.582 148.054C312.214 146.515 312.31 144.918 312.871 143.262C313.431 141.606 314.368 140.078 315.681 138.677C316.732 137.556 317.982 136.544 319.432 135.64C320.909 134.754 322.475 134.073 324.128 133.596C325.808 133.137 327.464 132.98 329.096 133.124C330.777 133.261 332.347 133.794 333.805 134.722C335.803 135.993 336.839 137.715 336.915 139.887C336.991 142.06 335.937 144.333 333.754 146.709L333.728 146.805L333.688 146.779L333.655 146.814ZM329.711 142.124C331.002 140.747 331.871 139.567 332.318 138.584C332.814 137.595 333.01 136.788 332.907 136.163C332.852 135.531 332.622 135.087 332.217 134.829C331.407 134.314 330.447 134.188 329.338 134.452C328.278 134.709 327.211 135.204 326.137 135.937C325.084 136.646 324.175 137.409 323.409 138.226L322.851 138.822L329.087 142.79L329.711 142.124Z" fill="#007991"/>
<path d="M349.515 155.506C351.715 151.02 352.043 148.261 350.501 147.228C349.996 146.889 349.396 146.732 348.7 146.757C348.004 146.781 347.115 147.127 346.03 147.797C344.969 148.443 343.627 149.562 342.006 151.154L334.299 158.719L335.404 163.759L323.959 156.092L329.513 155.513L341.057 144.182L340.983 139.776L355.897 149.768L349.834 155.72L349.515 155.506Z" fill="#007991"/>
<path d="M339.203 172.792C344.585 174.652 350.216 174.031 354.165 170.673C356.725 168.496 357.245 166.215 355.077 164.626C353.528 163.491 351.22 163.247 349.502 164.709C347.747 166.201 348.185 167.912 349.773 169.075C350.508 169.614 351.466 170.026 352.666 169.864L353.354 165.968L350.982 169.151C348.239 171.483 344.632 171.792 340.214 170.523L339.203 172.792Z" fill="#007991"/>
<path d="M385.815 196.092C383.921 196.414 382.226 196.481 380.731 196.293C379.261 196.124 378.019 195.624 377.005 194.792C375.867 193.858 375.208 192.698 375.028 191.312C374.873 189.907 375.179 188.46 375.943 186.971C376.733 185.502 377.988 184.157 379.711 182.934C381.746 181.49 383.93 180.546 386.261 180.103C388.618 179.641 390.921 179.654 393.168 180.141C395.416 180.628 397.406 181.582 399.137 183.003L401.512 184.952L404.878 182.563L405.369 178.353L414.576 182.494L389.524 200.274L389.529 204.472L381.979 198.814L385.815 196.092ZM398.145 187.341C398.233 186.294 398.164 185.359 397.938 184.535C397.739 183.692 397.33 183.017 396.712 182.51C395.796 181.759 394.534 181.481 392.924 181.677C391.338 181.894 389.593 182.678 387.688 184.03C385.94 185.271 384.623 186.546 383.737 187.856C382.876 189.187 382.438 190.425 382.424 191.571C382.46 192.719 382.923 193.658 383.814 194.389C384.234 194.734 384.659 194.963 385.087 195.075C385.567 195.189 386.149 195.287 386.833 195.369L398.145 187.341Z" fill="#007991"/>
<path d="M399.947 207.973C397.165 207.696 395.097 207.361 393.743 206.967C392.412 206.594 391.366 206.065 390.606 205.379C389.512 204.394 389.069 203.335 389.277 202.201C389.508 201.088 390.32 200.107 391.713 199.255C392.887 198.537 394.223 198.152 395.722 198.098C397.248 198.028 399.114 198.325 401.319 198.99C403.551 199.638 406.315 200.663 409.612 202.063C411.222 201.078 412.407 200.246 413.165 199.566C413.923 198.887 414.313 198.289 414.335 197.772C414.381 197.277 414.107 196.761 413.513 196.226C412.561 195.369 411.184 194.809 409.379 194.546C407.599 194.305 405.15 194.328 402.032 194.617L401.782 194.392L408.334 190.385L421.638 202.368L417.741 203.564L403.449 212.303L403.485 212.336L403.462 216.34L396.508 210.076L399.947 207.973ZM408.752 202.589C406.207 201.7 404.055 201.29 402.297 201.358C400.591 201.431 399.082 201.868 397.772 202.669C395.888 203.821 395.576 204.965 396.837 206.1C397.169 206.399 397.622 206.662 398.193 206.888C398.765 207.114 399.677 207.275 400.93 207.372L408.752 202.589Z" fill="#007991"/>
<path d="M427.335 220.459C430.63 216.942 431.621 214.527 430.309 213.214C429.879 212.784 429.31 212.495 428.601 212.346C427.891 212.197 426.909 212.292 425.653 212.632C424.426 212.956 422.802 213.639 420.783 214.68L411.185 219.631L411.098 224.461L401.36 214.718L407.113 215.557L421.489 208.142L422.466 204.139L435.157 216.836L427.607 220.731L427.335 220.459Z" fill="#007991"/>
<path d="M435.207 220.056L436.424 216.165L439.528 218.198L441.204 217.477L442.421 213.585L450.955 219.226L423.44 231.06L422.018 235.337L413.435 225.755L419.597 226.77L435.207 220.056Z" fill="#007991"/>
<path d="M440.629 227.504L449.262 233.53L430.487 240.041L428.79 244.181L420.814 234.088L426.916 235.522L439.161 231.276L440.629 227.504ZM450.556 226.028L456.297 227.444L454.753 231.338L448.996 229.976L450.556 226.028Z" fill="#007991"/>
<path d="M435.243 253.252L440.576 255.524L451.501 253.367C453.447 252.983 454.849 252.506 455.705 251.937C456.609 251.389 456.712 250.522 456.014 249.336C455.803 248.978 455.353 248.482 454.664 247.848C453.976 247.215 452.935 246.666 451.54 246.203L436.801 249.112L434.975 252.797L428.449 241.712L433.878 244.149L447.064 241.546L449.034 238.017L456.768 245.171L452.482 246.017C454.445 246.553 456.128 247.328 457.532 248.344C458.952 249.387 459.906 250.323 460.393 251.15C461.4 252.859 461.473 254.323 460.612 255.539C459.783 256.749 458.253 257.574 456.024 258.014L443.498 260.487L441.77 264.337L435.243 253.252Z" fill="#007991"/>
<path d="M470.955 277.922C469.526 277.705 468.293 277.438 467.255 277.122C466.217 276.806 465.072 276.344 463.82 275.735C462.721 276.749 461.278 277.199 459.489 277.082C457.829 276.974 456.209 276.419 454.63 275.416C453.057 274.444 451.695 273.176 450.545 271.611C449.427 270.048 448.688 268.324 448.328 266.438C448.196 265.746 448.123 265.198 448.109 264.794C448.101 264.421 448.136 264.113 448.216 263.87C447.669 263.151 447.18 262.654 446.749 262.377C446.355 262.134 445.935 261.998 445.488 261.969C444.754 261.921 444.272 262.123 444.043 262.574C443.813 263.024 443.774 263.643 443.924 264.428L446.182 276.263C445.706 276.573 445.182 276.803 444.611 276.952C444.072 277.103 443.356 277.15 442.462 277.092C440.61 276.971 438.795 276.387 437.019 275.34C435.216 274.323 433.655 272.917 432.335 271.124C431.021 269.362 430.133 267.271 429.671 264.851C429.155 262.148 429.268 260.013 430.01 258.447C430.752 256.882 431.873 256.147 433.374 256.245C434.396 256.312 435.308 256.712 436.111 257.448C436.919 258.214 437.715 259.244 438.498 260.536C438.699 259.774 439.081 259.131 439.643 258.609C440.212 258.118 440.943 257.902 441.837 257.96C442.795 258.022 443.825 258.462 444.927 259.279C446.061 260.098 447.193 261.32 448.324 262.945C448.654 261.539 449.332 260.466 450.358 259.725C451.415 258.987 452.726 258.669 454.291 258.771C455.984 258.881 457.603 259.436 459.15 260.437C460.697 261.438 462.014 262.719 463.1 264.28C464.193 265.872 464.916 267.595 465.27 269.45C465.39 270.078 465.442 270.516 465.426 270.764C465.442 271.013 465.439 271.246 465.417 271.462L470.967 277.736L470.955 277.922ZM463.877 267.357C463.709 266.477 463.138 265.881 462.164 265.569C461.196 265.289 459.93 265.098 458.365 264.996C455.555 264.813 453.325 265.025 451.674 265.631C450.062 266.271 449.361 267.142 449.571 268.242C449.733 269.09 450.339 269.704 451.389 270.083C452.439 270.462 453.794 270.705 455.454 270.813C457.243 270.929 458.787 270.844 460.088 270.556C461.427 270.302 462.42 269.885 463.067 269.306C463.751 268.761 464.021 268.111 463.877 267.357ZM438.043 261.624C437.532 261.094 437.01 260.672 436.477 260.358C435.918 260.074 435.255 259.906 434.489 259.856C433.02 259.761 431.916 260.17 431.176 261.084C430.441 262.03 430.269 263.524 430.659 265.567C430.899 266.825 431.348 268.018 432.005 269.147C432.636 270.306 433.433 271.258 434.395 272.003C435.331 272.778 436.39 273.204 437.572 273.281C438.019 273.31 438.521 273.296 439.077 273.239C439.634 273.182 440 273.036 440.176 272.799L438.043 261.624Z" fill="#007991"/>
<path d="M444.754 268.696L447.848 274.077L442.487 276.585L439.425 271.265L444.754 268.696Z" fill="#007991"/>
</svg>