<svg width="100%" style="" viewBox="0 0 290 280" fill="none" xmlns="http://www.w3.org/2000/svg">
<g filter="url(#shape_filter0-f-387-1792)">
<path fill-rule="evenodd" clip-rule="evenodd" d="M148.829 220.19C132.357 223.149 113.924 235.894 99.9134 226.749C85.6555 217.442 93.3938 193.728 85.3322 178.742C77.6325 164.429 59.0374 157.697 54.3909 142.126C49.3449 125.215 46.2419 102.559 58.9382 90.2889C72.6942 76.9947 97.3126 90.9229 114.981 83.5692C129.291 77.6133 133.905 57.0675 148.829 52.8764C164.383 48.5085 186.507 47.6702 195.795 60.8743C206.637 76.2858 184.489 99.8199 193.493 116.37C202.103 132.196 240.036 124.114 240 142.126C239.964 160.158 204.205 153.383 193.39 167.822C184.588 179.573 198.056 199.644 188.541 210.826C179.58 221.357 162.447 217.743 148.829 220.19Z" fill="url(#shape_paint0-radial-387-1792)"/>
</g>
<path d="M141.188 193.31L135.607 195.063L137.163 192.121L137.165 192.039L134.711 184.225C134.405 183.25 134.219 182.427 134.154 181.757C134.089 181.087 134.144 180.307 134.318 179.416C134.511 178.411 135.001 177.512 135.788 176.72C136.58 175.944 137.588 175.364 138.812 174.98C141.16 174.243 143.077 174.186 144.563 174.809C146.048 175.433 147.092 176.704 147.695 178.622L150.491 187.527L153.12 189.563L146.224 191.729L147.234 188.523L144.562 180.015C144.011 178.262 143.27 177.087 142.338 176.489C141.394 175.913 140.037 175.903 138.268 176.459C136.845 176.906 135.953 177.795 135.59 179.126C135.232 180.474 135.398 182.247 136.089 184.447L138.379 191.74L141.188 193.31Z" fill="#007991"/>
<path d="M126.751 194.513L125.422 182.287L123.212 179.754L130.398 178.974L128.783 181.921L130.111 194.148L132.321 196.68L125.135 197.46L126.751 194.513Z" fill="#007991"/>
<path d="M106.52 167.545L107.236 175.234L107.08 175.248L104.347 173.936L92.0501 175.08L89.5023 176.884L88.3413 164.406L93.6224 163.914L93.6465 164.173L89.5671 167.477L89.9766 171.878L97.2253 171.204L96.587 164.343L97.7778 164.233L98.4161 171.093L104.034 170.57L106.52 167.545Z" fill="#007991"/>
<path d="M94.1201 163.387L92.299 152.778L96.8346 152L96.8698 152.205C95.8073 152.88 95.0258 153.603 94.5252 154.375C94.0074 155.15 93.8116 155.904 93.9377 156.639C94.0228 157.134 94.1998 157.5 94.4688 157.735C94.7349 157.953 95.1315 158.061 95.6587 158.058C95.8866 158.054 96.1643 158.033 96.4919 157.994C96.8023 157.959 97.3504 157.873 98.1363 157.738L103.646 156.793L105.44 154.031L106.703 161.386L104.174 159.868L95.7941 161.306L94.1201 163.387Z" fill="#007991"/>
<path d="M102.49 150.144C100.92 151.428 99.1806 152.012 97.2708 151.895C95.3499 151.765 93.7198 150.882 92.3805 149.245C91.3156 147.944 90.9032 146.523 91.1432 144.983C91.3833 143.443 92.1807 142.118 93.5354 141.009C95.1048 139.725 96.8499 139.148 98.7708 139.278C100.681 139.395 102.305 140.271 103.645 141.908C104.709 143.209 105.122 144.63 104.882 146.17C104.642 147.71 103.844 149.035 102.49 150.144ZM101.974 141.427C101.502 140.85 100.841 140.63 99.9894 140.767C99.1247 140.915 98.2698 141.334 97.4248 142.026C95.7883 143.365 94.644 144.772 93.9917 146.247C93.3285 147.708 93.3427 148.861 94.0343 149.706C94.5393 150.323 95.1662 150.583 95.915 150.485C96.6504 150.398 97.5345 149.932 98.5674 149.087C100.217 147.737 101.374 146.331 102.037 144.87C102.687 143.42 102.666 142.272 101.974 141.427Z" fill="#007991"/>
<path d="M82.4073 133.053L86.8521 128.099L86.8745 125.115L92.0611 129.768L89.1745 130.183L85.32 134.479C84.475 135.421 84.0311 136.175 83.9882 136.742C83.9337 137.322 84.2161 137.89 84.8354 138.445C85.2353 138.804 85.6963 139.043 86.2183 139.162C86.7403 139.281 87.311 139.281 87.9305 139.161L92.9483 133.568L93.0481 130.654L98.2347 135.307L95.2707 135.652L90.5828 140.877L90.5619 143.548L85.7602 141.58L87.3402 139.819C86.4697 140.063 85.6116 140.085 84.7661 139.885C83.8962 139.687 83.1515 139.31 82.5322 138.754C81.6033 137.921 81.1303 137.008 81.1133 136.014C81.0963 135.021 81.5276 134.034 82.4073 133.053Z" fill="#007991"/>
<path d="M75.3879 131.007L74.9401 133.337L69.2175 131.271L72.3214 129.271L69.6181 125.075L71.1082 124.795L73.5017 128.511L78.8788 125.048C79.8842 124.4 80.5039 123.825 80.7378 123.324C80.9477 122.818 80.8368 122.23 80.405 121.559C80.1234 121.122 79.7466 120.777 79.2746 120.525C78.788 120.281 78.2823 120.184 77.7575 120.234L77.9383 119.746C79.2275 119.699 80.29 119.86 81.1256 120.229C81.9518 120.584 82.637 121.183 83.1815 122.029C83.754 122.918 83.9157 123.793 83.6665 124.654C83.3934 125.511 82.7104 126.291 81.6175 126.995L75.3879 131.007Z" fill="#007991"/>
<path d="M68.8612 108.58L68.906 108.543L68.9118 108.568L68.9371 108.562L70.8188 116.693C72.2606 116.235 73.3048 115.558 73.9512 114.661C74.5977 113.764 74.79 112.75 74.5281 111.618C74.3327 110.774 73.9711 110.057 73.4433 109.468C72.9115 108.861 72.352 108.519 71.7648 108.442L71.8288 108.026C73.4348 108.277 74.7564 108.799 75.7936 109.591C76.8308 110.383 77.496 111.412 77.7891 112.678C78.1408 114.198 77.8558 115.581 76.9342 116.826C75.9917 118.058 74.6761 118.87 72.9874 119.26C71.0454 119.71 69.2596 119.527 67.6299 118.712C65.9963 117.88 64.9685 116.553 64.5464 114.729C64.1947 113.209 64.4005 111.907 65.1637 110.823C65.927 109.739 67.1595 108.991 68.8612 108.58ZM69.8933 116.961L70.0706 116.92L68.9334 112.006L68.7054 112.058C67.5233 112.332 66.6499 112.748 66.0851 113.305C65.4995 113.85 65.2849 114.46 65.4412 115.136C65.6287 115.946 66.1696 116.515 67.0636 116.842C67.9368 117.156 68.8801 117.195 69.8933 116.961Z" fill="#007991"/>
<path d="M65.3351 93.7283L71.9898 93.8576L74.2638 91.9254L74.1284 98.8921L71.9292 96.977L66.1583 96.8649C64.8932 96.8403 64.032 96.9969 63.5747 97.3348C63.1 97.6723 62.8546 98.257 62.8385 99.0888C62.828 99.626 62.9482 100.131 63.1991 100.604C63.45 101.077 63.823 101.509 64.3181 101.9L71.8307 102.046L74.1027 100.218L73.9673 107.185L71.7701 105.165L64.7514 105.029L62.7155 106.758L61.0688 101.837L63.4343 101.883C62.6812 101.383 62.1041 100.748 61.703 99.9769C61.2849 99.1887 61.0839 98.3786 61.1001 97.5468C61.1243 96.299 61.507 95.3442 62.248 94.6825C62.989 94.0208 64.018 93.7027 65.3351 93.7283Z" fill="#007991"/>
<path d="M74.8763 79.3037L77.4097 78.5316L75.1185 83.0313L72.9039 81.7711C73.4086 82.6367 73.6864 83.4628 73.7373 84.2496C73.7731 85.0278 73.5852 85.7785 73.1738 86.5016C72.4108 87.8424 71.305 88.6291 69.8564 88.8618C68.4078 89.0945 66.9076 88.7694 65.3559 87.8864C63.6234 86.9006 62.5008 85.5439 61.9881 83.8163C61.4754 82.0886 61.7334 80.3209 62.7621 78.5131L63.8422 76.6149L61.8988 75.5091L59.2844 76.0556L60.4137 71.0743L74.8763 79.3037ZM64.8297 84.0272C66.3964 84.9187 67.7731 85.3032 68.9596 85.1806C70.1548 85.043 71.0652 84.4243 71.691 83.3245C71.8881 82.978 72.0144 82.651 72.0697 82.3435C72.1336 82.0209 72.1405 81.6758 72.0904 81.3082L66.0116 77.8493C65.3196 78.014 64.7278 78.2655 64.2361 78.6039C63.7293 78.9338 63.3345 79.3473 63.0516 79.8445C62.6058 80.6279 62.5384 81.3772 62.8493 82.0926C63.1602 82.808 63.8203 83.4528 64.8297 84.0272Z" fill="#007991"/>
<path d="M104.14 53.5991L109.98 53.945L107.48 56.141L107.449 56.2173L106.965 64.393C106.904 65.4139 106.785 66.249 106.608 66.8983C106.431 67.5476 106.102 68.2574 105.622 69.0277C105.084 69.8988 104.307 70.5646 103.29 71.0253C102.274 71.4686 101.126 71.6524 99.8454 71.5765C97.3884 71.431 95.5764 70.8027 94.4093 69.6918C93.2423 68.5808 92.7183 67.0218 92.8372 65.0146L93.3892 55.6969L91.6559 52.8595L98.8713 53.2869L96.7877 55.9243L96.2603 64.8267C96.1516 66.6608 96.4269 68.0228 97.0861 68.9127C97.7636 69.7863 99.0281 70.2779 100.88 70.3876C102.368 70.4758 103.518 69.9622 104.331 68.847C105.144 67.7145 105.619 65.9976 105.756 63.6963L106.208 56.0657L104.14 53.5991Z" fill="#007991"/>
<path d="M113.146 56.9367L115.037 69.0885L117.362 71.5158L110.22 72.6272L111.697 69.6082L109.806 57.4564L107.481 55.029L114.623 53.9176L113.146 56.9367Z" fill="#007991"/>
<path d="M121.441 48.9341L124.982 44.277L125.413 47.5767L125.459 47.6446L131.979 52.6011C132.793 53.22 133.42 53.784 133.861 54.293C134.301 54.802 134.708 55.4703 135.08 56.2978C135.504 57.2296 135.624 58.2461 135.44 59.3474C135.242 60.4381 134.755 61.494 133.979 62.5151C132.489 64.4745 130.958 65.6294 129.385 65.9797C127.813 66.33 126.226 65.8968 124.625 64.6799L117.195 59.031L113.873 58.8898L118.247 53.1358L119.277 56.3353L126.376 61.7324C127.839 62.8444 129.123 63.3745 130.229 63.3227C131.332 63.2467 132.445 62.4705 133.567 60.994C134.47 59.8073 134.684 58.5659 134.211 57.2697C133.723 55.9631 132.562 54.6121 130.727 53.217L124.642 48.5909L121.441 48.9341Z" fill="#007991"/>
<path d="M132.588 39.4703L140.706 48.7079L143.971 49.508L138.542 54.2794L138.168 50.9392L130.049 41.7016L126.785 40.9015L132.214 36.13L132.588 39.4703Z" fill="#007991"/>
<path d="M162.191 43.3806L154.476 43.0385L154.483 42.8827L156.157 40.3543L156.704 28.0165L155.265 25.246L167.785 25.8012L167.55 31.1L167.29 31.0885L164.575 26.5958L160.159 26.3999L159.836 33.6728L166.72 33.9781L166.667 35.1729L159.783 34.8676L159.533 40.5041L162.191 43.3806Z" fill="#007991"/>
<path d="M173.126 29.6832L182.937 34.1113L181.044 38.3059L180.854 38.2203C180.89 36.9621 180.728 35.9096 180.368 35.0628C180.016 34.2001 179.5 33.6155 178.821 33.3089C178.363 33.1021 177.961 33.0443 177.615 33.1356C177.286 33.234 176.974 33.5024 176.682 33.9407C176.557 34.1318 176.419 34.3739 176.268 34.667C176.124 34.9442 175.888 35.4462 175.56 36.1729L173.26 41.268L174.544 44.3008L167.743 41.231L170.417 39.9845L173.914 32.2353L173.126 29.6832Z" fill="#007991"/>
<path d="M187.924 39.8003C189.875 39.2501 191.703 39.4101 193.408 40.2804C195.116 41.1673 196.258 42.6285 196.831 44.6638C197.288 46.2821 197.098 47.7493 196.262 49.0654C195.427 50.3815 194.166 51.277 192.481 51.752C190.529 52.3023 188.699 52.1339 186.99 51.2469C185.286 50.3766 184.147 48.9238 183.574 46.8885C183.117 45.2702 183.307 43.803 184.143 42.487C184.978 41.1709 186.239 40.2753 187.924 39.8003ZM184.913 47.9968C185.115 48.7141 185.633 49.1803 186.468 49.3951C187.32 49.6052 188.271 49.5622 189.322 49.2659C191.358 48.6921 192.969 47.8597 194.156 46.7687C195.348 45.6943 195.796 44.6316 195.499 43.5806C195.283 42.8132 194.812 42.3246 194.087 42.1149C193.378 41.9005 192.381 41.9744 191.097 42.3365C189.045 42.915 187.423 43.7414 186.231 44.8157C185.056 45.8854 184.616 46.9457 184.913 47.9968Z" fill="#007991"/>
<path d="M193.439 68.7547L187.068 66.8303L184.356 68.0755L186.37 61.405L187.97 63.8436L193.495 65.5124C194.707 65.8782 195.578 65.9603 196.11 65.7588C196.658 65.5622 197.052 65.0657 197.293 64.2692C197.448 63.7548 197.469 63.2361 197.355 62.7129C197.242 62.1897 197 61.6729 196.629 61.1625L189.436 58.9901L186.754 60.1357L188.768 53.4653L190.338 56.0033L197.058 58.0329L199.485 56.9193L199.74 62.1022L197.475 61.4181C198.065 62.1032 198.448 62.871 198.626 63.7213C198.815 64.5933 198.79 65.4275 198.549 66.224C198.189 67.4187 197.562 68.2344 196.67 68.671C195.777 69.1077 194.701 69.1356 193.439 68.7547Z" fill="#007991"/>
<path d="M193.995 72.5645L195.962 71.2378L198.536 76.7506L194.929 75.9623L193.863 80.8392L192.614 79.9806L193.558 75.6625L187.309 74.2968C186.141 74.0414 185.297 74.0077 184.776 74.1957C184.27 74.4042 183.931 74.898 183.761 75.6769C183.65 76.1849 183.671 76.6953 183.825 77.208C183.996 77.7245 184.285 78.1512 184.69 78.4882L184.217 78.7041C183.274 77.8238 182.638 76.9574 182.31 76.105C181.978 75.2695 181.919 74.3607 182.134 73.3786C182.36 72.3456 182.866 71.6135 183.652 71.1821C184.451 70.7713 185.486 70.7047 186.756 70.9823L193.995 72.5645Z" fill="#007991"/>
<path d="M188.469 89.7885L188.429 89.8312L188.42 89.8069L188.396 89.816L185.447 82.0082C184.079 82.6545 183.135 83.4651 182.614 84.4401C182.093 85.4151 182.037 86.4458 182.447 87.5322C182.754 88.343 183.208 89.0054 183.809 89.5193C184.417 90.0494 185.017 90.3138 185.609 90.3124L185.601 90.7324C183.976 90.6976 182.597 90.3569 181.463 89.7103C180.33 89.0637 179.534 88.1323 179.074 86.9162C178.523 85.4568 178.621 84.0486 179.369 82.6917C180.139 81.3449 181.334 80.3653 182.956 79.7529C184.821 79.0487 186.615 78.9919 188.339 79.5823C190.069 80.189 191.264 81.3679 191.926 83.1192C192.477 84.5786 192.446 85.8964 191.834 87.0724C191.222 88.2484 190.1 89.1538 188.469 89.7885ZM186.329 81.6197L186.159 81.684L187.941 86.4028L188.16 86.3201C189.295 85.8915 190.105 85.3631 190.59 84.7351C191.098 84.1172 191.23 83.484 190.985 82.8353C190.691 82.057 190.079 81.5654 189.149 81.3606C188.242 81.1659 187.302 81.2523 186.329 81.6197Z" fill="#007991"/>
<path d="M196.131 94.0322L194.346 100.444L195.651 103.128L188.938 101.26L191.341 99.608L192.888 94.0473C193.227 92.8283 193.29 91.9553 193.077 91.4282C192.869 90.8843 192.364 90.5009 191.562 90.2778C191.044 90.1338 190.525 90.1243 190.005 90.2493C189.484 90.3743 188.973 90.6278 188.471 91.0098L186.456 98.2488L187.66 100.905L180.947 99.0367L183.45 97.4123L185.332 90.6493L184.166 88.2466L189.342 87.8788L188.708 90.1582C189.38 89.5536 190.139 89.1531 190.985 88.9568C191.853 88.7485 192.687 88.7558 193.489 88.9789C194.691 89.3135 195.52 89.922 195.976 90.8046C196.433 91.6872 196.484 92.7631 196.131 94.0322Z" fill="#007991"/>
<path d="M209.117 104.266L210.493 106.529L205.566 105.424L206.238 102.966C205.525 103.67 204.793 104.144 204.044 104.388C203.298 104.615 202.525 104.619 201.722 104.4C200.234 103.993 199.198 103.117 198.614 101.771C198.029 100.425 197.972 98.891 198.443 97.1689C198.969 95.2462 200.006 93.8225 201.552 92.8977C203.099 91.973 204.876 91.785 206.882 92.3337L208.988 92.9098L209.578 90.753L208.401 88.3555L213.507 88.2154L209.117 104.266ZM202.052 95.7029C201.576 97.4417 201.545 98.8707 201.958 99.9899C202.387 101.114 203.212 101.842 204.433 102.176C204.817 102.281 205.165 102.323 205.477 102.3C205.805 102.282 206.141 102.203 206.485 102.064L208.33 95.3174C207.999 94.6878 207.609 94.1767 207.159 93.7842C206.714 93.3749 206.215 93.0948 205.664 92.9439C204.794 92.7062 204.052 92.8265 203.436 93.305C202.82 93.7834 202.358 94.5827 202.052 95.7029Z" fill="#007991"/>
<path d="M213.842 138.438L208.133 139.717L209.931 136.916L209.939 136.834L208.149 128.842C207.926 127.844 207.81 127.009 207.801 126.336C207.793 125.663 207.913 124.89 208.161 124.017C208.438 123.031 209.002 122.177 209.852 121.454C210.706 120.747 211.759 120.254 213.011 119.974C215.413 119.436 217.328 119.54 218.756 120.286C220.184 121.032 221.118 122.386 221.557 124.348L223.597 133.456L226.046 135.705L218.992 137.285L220.268 134.175L218.319 125.473C217.917 123.68 217.277 122.446 216.398 121.773C215.506 121.12 214.155 120.996 212.345 121.402C210.89 121.727 209.926 122.538 209.453 123.834C208.983 125.147 209 126.929 209.504 129.178L211.174 136.638L213.842 138.438Z" fill="#007991"/>
<path d="M202.502 138.105L199.106 126.286L196.495 124.168L203.442 122.172L202.354 125.352L205.751 137.172L208.361 139.289L201.414 141.285L202.502 138.105Z" fill="#007991"/>
<path d="M197.076 138.139L197.45 143.977L194.963 141.765L194.884 141.744L186.71 142.268C185.69 142.333 184.846 142.317 184.18 142.221C183.514 142.125 182.769 141.886 181.946 141.504C181.015 141.078 180.259 140.388 179.677 139.435C179.112 138.481 178.789 137.364 178.707 136.084C178.55 133.628 178.951 131.753 179.91 130.458C180.869 129.163 182.352 128.452 184.359 128.323L193.674 127.727L196.277 125.658L196.739 132.872L193.865 131.128L184.965 131.698C183.132 131.815 181.814 132.255 181.012 133.019C180.228 133.799 179.895 135.114 180.014 136.965C180.109 138.452 180.76 139.531 181.967 140.2C183.191 140.869 184.953 141.13 187.253 140.982L194.882 140.494L197.076 138.139Z" fill="#007991"/>
<path d="M195.371 149.443L183.159 150.896L180.65 153.132L179.796 145.954L182.76 147.539L194.972 146.087L197.481 143.851L198.335 151.028L195.371 149.443Z" fill="#007991"/>
<path d="M181.213 185.981L175.549 187.441L177.256 184.585L177.261 184.503L175.217 176.572C174.962 175.582 174.819 174.75 174.789 174.078C174.759 173.405 174.854 172.629 175.075 171.749C175.32 170.755 175.856 169.883 176.682 169.133C177.514 168.399 178.55 167.872 179.792 167.552C182.176 166.938 184.093 166.981 185.545 167.681C186.996 168.38 187.972 169.704 188.474 171.651L190.804 180.689L193.324 182.859L186.324 184.663L187.5 181.514L185.273 172.879C184.815 171.1 184.135 169.887 183.235 169.242C182.323 168.618 180.968 168.538 179.172 169.001C177.729 169.373 176.791 170.214 176.359 171.525C175.932 172.852 176.006 174.632 176.581 176.865L178.489 184.267L181.213 185.981Z" fill="#007991"/>
<path d="M166.625 186.084L165.926 173.806L163.848 171.164L171.065 170.753L169.301 173.614L170 185.892L172.077 188.534L164.861 188.945L166.625 186.084Z" fill="#007991"/>
<defs>
<filter id="shape_filter0-f-387-1792" x="3.05176e-05" y="0.00012207" width="290" height="280" filterUnits="userSpaceOnUse" color-interpolation-filters="sRGB">
<feFlood flood-opacity="0" result="BackgroundImageFix"/>
<feBlend mode="normal" in="SourceGraphic" in2="BackgroundImageFix" result="shape"/>
<feGaussianBlur stdDeviation="25" result="effect1_foregroundBlur_387_1792"/>
</filter>
<radialGradient id="shape_paint0-radial-387-1792" cx="0" cy="0" r="1" gradientUnits="userSpaceOnUse" gradientTransform="translate(141.891 214.25) rotate(-95.1885) scale(263.58 447.646)">
<stop stop-color="#78FFD6"/>
<stop offset="1" stop-color="#007991"/>
</radialGradient>
</defs>
</svg>